#N canvas 368 555 709 345 10;
#X obj 150 49 unpack;
#N canvas 138 106 367 251 send_further 0;
#X obj 140 63 loadbang;
#X obj 140 107 + 1;
#X obj 95 146 s;
#X obj 95 63 inlet;
#X obj 140 85 \$2;
#X msg 140 129 symbol inlet_states\$1;
#X connect 0 0 4 0;
#X connect 1 0 5 0;
#X connect 3 0 2 0;
#X connect 4 0 1 0;
#X connect 5 0 2 1;
#X restore 31 197 pd send_further;
#X obj 31 153 spigot;
#X obj 31 175 t l b;
#X msg 87 136 0;
#N canvas 52 319 343 207 guts 0;
#X obj 86 16 loadbang;
#X obj 86 38 \$3;
#N canvas 766 287 450 300 create_route 0;
#X obj 104 82 until;
#X obj 104 127 f;
#X obj 134 127 + 1;
#X msg 122 105 1;
#X obj 104 149 t f f;
#X msg 160 166 add2 \$1;
#X obj 104 171 sel;
#X msg 160 210 obj 150 120 route 1 2 3;
#X obj 160 232 s \$0-this;
#X obj 86 60 t f f b f b;
#X obj 86 35 inlet;
#X obj 86 251 outlet;
#X msg 192 77 set obj 150 150 route;
#X connect 0 0 1 0;
#X connect 1 0 2 0;
#X connect 1 0 4 0;
#X connect 2 0 1 1;
#X connect 3 0 1 1;
#X connect 4 0 6 0;
#X connect 4 1 5 0;
#X connect 5 0 7 0;
#X connect 6 0 7 0;
#X connect 7 0 8 0;
#X connect 9 0 11 0;
#X connect 9 1 0 0;
#X connect 9 2 3 0;
#X connect 9 3 6 1;
#X connect 9 4 12 0;
#X connect 10 0 9 0;
#X connect 12 0 7 0;
#X restore 86 62 pd create_route;
#N canvas 389 218 388 441 create_triggers_and_sends 0;
#X obj 117 78 until;
#X obj 117 123 f;
#X obj 147 123 + 1;
#X msg 135 101 0;
#X obj 94 31 inlet;
#X obj 94 53 t f f b;
#X obj 184 257 loadbang;
#X obj 184 279 \$1;
#X obj 167 206 t f f;
#X obj 199 371 s \$0-this;
#X obj 94 395 outlet;
#X obj 117 145 t f f;
#X obj 117 302 pack f f f;
#X obj 167 184 + 150;
#X obj 150 235 + 32;
#X obj 167 162 * 100;
#X msg 199 228 obj \$1 180 t f f;
#X msg 117 325 obj \$2 210 s \$3-inlet\$1;
#X connect 0 0 1 0;
#X connect 1 0 2 0;
#X connect 1 0 11 0;
#X connect 2 0 1 1;
#X connect 3 0 1 1;
#X connect 4 0 5 0;
#X connect 5 0 10 0;
#X connect 5 1 0 0;
#X connect 5 2 3 0;
#X connect 6 0 7 0;
#X connect 7 0 12 2;
#X connect 8 0 14 0;
#X connect 8 1 16 0;
#X connect 11 0 12 0;
#X connect 11 1 15 0;
#X connect 12 0 17 0;
#X connect 13 0 8 0;
#X connect 14 0 12 1;
#X connect 15 0 13 0;
#X connect 16 0 9 0;
#X connect 17 0 9 0;
#X restore 86 84 pd create_triggers_and_sends;
#N canvas 625 141 610 538 make_connections 0;
#X obj 45 95 + 1;
#X obj 45 117 until;
#X obj 45 161 f;
#X obj 75 161 + 1;
#X msg 63 139 0;
#X obj 371 467 s \$0-this;
#X obj 45 185 moses;
#X text 157 70 connect [pack] to [route];
#X obj 45 47 inlet;
#X text 75 363 connect [route] to [t f f];
#X obj 45 247 t f f;
#X obj 45 344 pack;
#X obj 77 269 * 2;
#X msg 371 316 connect \$1 1 \$2 0;
#X obj 45 207 t f f;
#X obj 371 246 t f f;
#X obj 371 294 pack;
#X obj 371 224 * 2;
#X text 407 298 connect [t f f] to [s ];
#X obj 77 313 t f f;
#X text 128 313 connect [t f f] to [outlet];
#X obj 45 70 t f b f b;
#X msg 159 87 connect 12 0 14 0;
#X msg 136 202 connect 14 \$1 13 0;
#X text 136 182 connect [route] to [1 (;
#X obj 77 291 + 15;
#X msg 125 330 connect \$1 0 11 0;
#X msg 45 380 connect 14 \$1 \$2 0;
#X obj 371 268 + 15;
#X obj 409 268 + 16;
#X connect 0 0 1 0;
#X connect 1 0 2 0;
#X connect 2 0 3 0;
#X connect 2 0 6 0;
#X connect 3 0 2 1;
#X connect 4 0 2 1;
#X connect 6 0 14 0;
#X connect 6 1 23 0;
#X connect 8 0 21 0;
#X connect 10 0 11 0;
#X connect 10 1 12 0;
#X connect 11 0 27 0;
#X connect 12 0 25 0;
#X connect 13 0 5 0;
#X connect 14 0 10 0;
#X connect 14 1 17 0;
#X connect 15 0 28 0;
#X connect 15 1 29 0;
#X connect 16 0 13 0;
#X connect 17 0 15 0;
#X connect 19 0 11 1;
#X connect 19 1 26 0;
#X connect 21 0 0 0;
#X connect 21 1 4 0;
#X connect 21 2 6 1;
#X connect 21 3 22 0;
#X connect 22 0 5 0;
#X connect 23 0 5 0;
#X connect 25 0 19 0;
#X connect 26 0 5 0;
#X connect 27 0 5 0;
#X connect 28 0 16 0;
#X connect 29 0 16 1;
#X restore 86 107 pd make_connections;
#X connect 0 0 1 0;
#X connect 1 0 2 0;
#X connect 2 0 3 0;
#X connect 3 0 4 0;
#X restore 323 39 pd guts;
#X obj 383 39 namecanvas \$0-this;
#X obj 31 32 t l l;
#X obj 31 10 r inlet_states\$2;
#X obj 150 94 -;
#X obj 168 72 inlet;
#X obj 150 260 outlet;
#X obj 150 116 pack;
#X msg 70 113 1;
#X connect 0 0 9 0;
#X connect 0 1 12 1;
#X connect 2 0 3 0;
#X connect 3 0 1 0;
#X connect 3 1 4 0;
#X connect 4 0 2 1;
#X connect 7 0 2 0;
#X connect 7 1 0 0;
#X connect 8 0 7 0;
#X connect 9 0 12 0;
#X connect 10 0 9 1;
#X connect 13 0 2 1;
