#N canvas 641 376 623 282 10;
#X obj 100 41 inlet;
#X obj 269 37 namecanvas \$0-this;
#N canvas 1121 275 396 668 guts 0;
#X obj 31 18 loadbang;
#X obj 54 114 until;
#X obj 54 158 f;
#X obj 84 158 + 1;
#X msg 72 135 0;
#X obj 54 92 t f b f;
#X obj 31 40 \$2;
#X obj 100 114 - 1;
#X obj 54 180 t f f f;
#X obj 54 232 sel;
#X msg 186 197 add2 \$1;
#X msg 124 79 set obj 100 100 route;
#X msg 186 220 obj 100 100 route 0 1 2;
#X obj 89 205 t f f;
#X obj 89 275 pack f f \$1;
#X obj 126 250 + 100;
#X msg 89 297 obj \$2 140 s \$3-input\$1;
#X obj 89 319 s \$0-this;
#X obj 31 62 t f f b;
#X obj 31 347 t f f;
#X obj 196 364 + 3;
#X msg 228 408 connect 0 0 \$1 0;
#X obj 228 600 s \$0-this;
#X obj 196 386 t f f;
#X obj 31 369 t f b;
#X obj 31 391 until;
#X obj 31 435 f;
#X obj 61 435 + 1;
#X msg 49 412 0;
#X obj 31 457 t f f;
#X obj 64 480 + 3;
#X obj 31 507 pack f f f;
#X msg 31 529 connect \$3 \$1 \$2 0;
#X obj 126 228 * 100;
#X connect 0 0 6 0;
#X connect 1 0 2 0;
#X connect 2 0 3 0;
#X connect 2 0 8 0;
#X connect 3 0 2 1;
#X connect 4 0 2 1;
#X connect 5 0 1 0;
#X connect 5 1 4 0;
#X connect 5 2 7 0;
#X connect 6 0 18 0;
#X connect 7 0 9 1;
#X connect 8 0 9 0;
#X connect 8 1 13 0;
#X connect 8 2 10 0;
#X connect 9 0 12 0;
#X connect 10 0 12 0;
#X connect 11 0 12 0;
#X connect 12 0 17 0;
#X connect 13 0 14 0;
#X connect 13 1 33 0;
#X connect 14 0 16 0;
#X connect 15 0 14 1;
#X connect 16 0 17 0;
#X connect 18 0 19 0;
#X connect 18 1 5 0;
#X connect 18 2 11 0;
#X connect 19 0 24 0;
#X connect 19 1 20 0;
#X connect 20 0 23 0;
#X connect 21 0 22 0;
#X connect 23 0 31 2;
#X connect 23 1 21 0;
#X connect 24 0 25 0;
#X connect 24 1 28 0;
#X connect 25 0 26 0;
#X connect 26 0 27 0;
#X connect 26 0 29 0;
#X connect 27 0 26 1;
#X connect 28 0 26 1;
#X connect 29 0 31 0;
#X connect 29 1 30 0;
#X connect 30 0 31 1;
#X connect 31 0 32 0;
#X connect 32 0 22 0;
#X connect 33 0 15 0;
#X restore 413 37 pd guts;
