#N canvas 590 290 989 656 10;
#X declare -path ../generic_abstractions -path ./module_abstractions
;
#X obj 17 298 s~ \$0-out0;
#X obj 217 298 s~ \$0-out1;
#X obj 417 298 s~ \$0-out2;
#X obj 617 298 s~ \$0-out3;
#X obj 17 345 r~ out0;
#X obj 17 367 module_output~ 0;
#X obj 217 345 r~ out1;
#X obj 217 367 module_output~ 1;
#X obj 417 345 r~ out2;
#X obj 417 367 module_output~ 2;
#X obj 617 345 r~ out3;
#X obj 617 367 module_output~ 3;
#X obj 17 445 r~ out0;
#X obj 217 445 r~ out1;
#X obj 417 445 r~ out2;
#X obj 617 445 r~ out3;
#X obj 346 500 *~ 1;
#X obj 410 548 limiter~;
#X obj 346 542 z~ 9;
#X obj 346 564 *~;
#X obj 346 586 module_output~ 4;
#N canvas 400 192 723 516 pots_and_switches 0;
#X obj 63 98 r module\$1;
#X obj 63 479 s \$0-amp0;
#X obj 63 435 filter_pot 0.85;
#X obj 84 365 filter_pot 0.85;
#X obj 106 295 filter_pot 0.85;
#X obj 127 225 filter_pot 0.85;
#X obj 84 409 s \$0-amp1;
#X obj 106 339 s \$0-amp2;
#X obj 127 269 s \$0-amp3;
#X obj 292 225 > 512;
#X obj 524 138 r analog_res;
#X obj 524 160 / 2;
#X obj 292 269 s \$0-switch0;
#X obj 392 225 > 512;
#X obj 492 225 > 512;
#X obj 592 225 > 512;
#X obj 392 269 s \$0-switch1;
#X obj 492 269 s \$0-switch2;
#X obj 592 269 s \$0-switch3;
#X obj 292 247 change;
#X obj 392 247 change;
#X obj 492 247 change;
#X obj 592 247 change;
#X obj 63 120 route pots;
#X obj 63 143 unpack f f f f f f f f;
#X text 60 16 in this abstraction we're reading the last four pots
as switches cause all the digital inputs are taken by banana terminals
(just use a pull-down resistor and attach a switch to the analog input
\, then threshold it);
#X obj 84 387 tabread exp_tab;
#X obj 106 317 tabread exp_tab;
#X obj 127 247 tabread exp_tab;
#X obj 63 457 tabread exp_tab;
#X connect 0 0 23 0;
#X connect 2 0 29 0;
#X connect 3 0 26 0;
#X connect 4 0 27 0;
#X connect 5 0 28 0;
#X connect 9 0 19 0;
#X connect 10 0 11 0;
#X connect 11 0 9 1;
#X connect 11 0 13 1;
#X connect 11 0 14 1;
#X connect 11 0 15 1;
#X connect 13 0 20 0;
#X connect 14 0 21 0;
#X connect 15 0 22 0;
#X connect 19 0 12 0;
#X connect 20 0 16 0;
#X connect 21 0 17 0;
#X connect 22 0 18 0;
#X connect 23 0 24 0;
#X connect 24 0 2 0;
#X connect 24 1 3 0;
#X connect 24 2 4 0;
#X connect 24 3 5 0;
#X connect 24 4 9 0;
#X connect 24 5 13 0;
#X connect 24 6 14 0;
#X connect 24 7 15 0;
#X connect 26 0 6 0;
#X connect 27 0 7 0;
#X connect 28 0 8 0;
#X connect 29 0 1 0;
#X restore 17 137 pd pots_and_switches;
#X obj 17 194 module_input~ 0 metalink 0;
#X obj 617 194 module_input~ 3 metalink 3;
#X obj 37 217 module_input~ 4;
#X obj 48 239 input_state 4;
#X obj 91 276 input_state 0;
#X obj 237 217 module_input~ 5;
#X obj 248 239 input_state 5;
#X obj 291 276 input_state 1;
#X obj 437 217 module_input~ 6;
#X obj 448 239 input_state 6;
#X obj 491 276 input_state 2;
#X obj 637 217 module_input~ 7;
#X obj 648 239 input_state 7;
#X obj 691 276 input_state 3;
#X obj 617 276 vca~ \$0 3;
#X obj 17 276 vca~ \$0 0;
#X obj 217 276 vca~ \$0 1;
#X obj 417 276 vca~ \$0 2;
#X obj 217 194 module_input~ 1 metalink 1;
#X obj 417 194 module_input~ 2 metalink 2;
#X obj 14 28 cnv 15 430 100 empty empty Declare_generic_abstractions_path
0 -12 0 14 -204786 -66577 0;
#X obj 454 28 cnv 15 490 100 empty empty Use_module_data_and_switch~
0 -12 0 14 -204786 -66577 0;
#X obj 467 69 module_data \$0 \$1 \$2 \$3;
#X obj 467 92 switch~;
#X text 463 34 [module_data \$0 \$1 \$2 \$3] must be used in all module
abstractions \, otherwise the whole system will not work;
#X text 525 93 <- control the DSP of the module accodring to its activity
;
#X obj 22 94 declare -path ../generic_abstractions -path ./module_abstractions
;
#X text 20 34 you must declare the path to the generic abstractions
as they are used in all module abstractions (here we use [map] \, map_zero]
\, and [module_data]) \, as well as the module_abstractions directory.
;
#X connect 4 0 5 0;
#X connect 6 0 7 0;
#X connect 8 0 9 0;
#X connect 10 0 11 0;
#X connect 12 0 16 0;
#X connect 13 0 16 0;
#X connect 14 0 16 0;
#X connect 15 0 16 0;
#X connect 16 0 17 0;
#X connect 16 0 18 0;
#X connect 17 0 19 1;
#X connect 18 0 19 0;
#X connect 19 0 20 0;
#X connect 22 0 37 0;
#X connect 23 0 36 0;
#X connect 24 0 37 1;
#X connect 25 1 37 2;
#X connect 26 0 37 3;
#X connect 27 0 38 1;
#X connect 28 1 38 2;
#X connect 29 0 38 3;
#X connect 30 0 39 1;
#X connect 31 1 39 2;
#X connect 32 0 39 3;
#X connect 33 0 36 1;
#X connect 34 1 36 2;
#X connect 35 0 36 3;
#X connect 36 0 3 0;
#X connect 37 0 0 0;
#X connect 38 0 1 0;
#X connect 39 0 2 0;
#X connect 40 0 38 0;
#X connect 41 0 39 0;
#X connect 44 0 45 0;
