#N canvas 299 82 1334 934 10;
#X declare -path ./generic_abstractions;
#X obj 41 529 route 0;
#X obj 41 418 hradio 15 1 0 9 empty empty empty 0 -8 0 10 -262144 -1
-1 3;
#X msg 41 461 symbol module\$1;
#X obj 41 259 route 1;
#X obj 41 326 tgl 15 0 empty empty empty 17 7 0 10 -262144 -1 -1 0
1;
#X obj 136 326 tgl 15 0 empty empty empty 17 7 0 10 -262144 -1 -1 0
1;
#X obj 41 506 spigot;
#X obj 41 281 spigot;
#X obj 223 489 r debug;
#X obj 97 264 r debug;
#X obj 42 178 tgl 15 0 empty empty empty 17 7 0 10 -262144 -1 -1 0
1;
#X obj 42 198 s debug;
#X obj 630 232 r to_comport;
#X obj 630 254 spigot;
#X obj 630 276 print comport;
#X obj 727 237 r debug;
#X obj 41 237 r module1;
#X obj 41 438 + 1;
#X obj 35 122 declare -path ./generic_abstractions;
#X obj 747 642 r to_mtx_mul;
#X obj 747 830 list prepend matrix;
#X obj 747 852 list trim;
#X obj 747 779 route matrix;
#X obj 828 802 print connection;
#X obj 747 687 spigot;
#X obj 786 667 tgl 15 0 empty empty empty 17 7 0 10 -262144 -1 -1 0
1;
#X obj 750 593 s to_comport;
#X obj 750 464 hradio 15 1 0 2 empty empty led_state 0 -8 0 10 -262144
-1 -1 0;
#X obj 41 882 filter_pot 0.85;
#X floatatom 41 904 5 0 0 0 - - -, f 5;
#X obj 143 860 r filter_coeff;
#X obj 64 838 filter_pot 0.85;
#X floatatom 64 860 5 0 0 0 - - -, f 5;
#X obj 166 816 r filter_coeff;
#X obj 88 794 filter_pot 0.85;
#X floatatom 88 816 5 0 0 0 - - -, f 5;
#X obj 190 772 r filter_coeff;
#X obj 111 750 filter_pot 0.85;
#X floatatom 111 772 5 0 0 0 - - -, f 5;
#X obj 213 728 r filter_coeff;
#X obj 135 706 filter_pot 0.85;
#X floatatom 135 728 5 0 0 0 - - -, f 5;
#X obj 237 684 r filter_coeff;
#X obj 158 662 filter_pot 0.85;
#X floatatom 158 684 5 0 0 0 - - -, f 5;
#X obj 260 640 r filter_coeff;
#X obj 182 618 filter_pot 0.85;
#X floatatom 182 640 5 0 0 0 - - -, f 5;
#X obj 284 596 r filter_coeff;
#X obj 206 574 filter_pot 0.85;
#X floatatom 206 596 5 0 0 0 - - -, f 5;
#X obj 308 552 r filter_coeff;
#X obj 41 304 get_switches 2;
#X obj 181 259 route 1;
#X obj 181 326 tgl 15 0 empty empty empty 17 7 0 10 -262144 -1 -1 0
1;
#X obj 228 326 tgl 15 0 empty empty empty 17 7 0 10 -262144 -1 -1 0
1;
#X obj 181 281 spigot;
#X obj 237 264 r debug;
#X obj 181 304 get_switches 3;
#X obj 276 326 tgl 15 0 empty empty empty 17 7 0 10 -262144 -1 -1 0
1;
#X obj 181 237 r module2;
#X obj 321 259 route 1;
#X obj 321 326 tgl 15 0 empty empty empty 17 7 0 10 -262144 -1 -1 0
1;
#X obj 416 326 tgl 15 0 empty empty empty 17 7 0 10 -262144 -1 -1 0
1;
#X obj 321 281 spigot;
#X obj 377 264 r debug;
#X obj 321 304 get_switches 2;
#X obj 321 237 r module4;
#X obj 461 259 route 1;
#X obj 461 326 tgl 15 0 empty empty empty 17 7 0 10 -262144 -1 -1 0
1;
#X obj 556 326 tgl 15 0 empty empty empty 17 7 0 10 -262144 -1 -1 0
1;
#X obj 461 281 spigot;
#X obj 517 264 r debug;
#X obj 461 304 get_switches 2;
#X obj 461 237 r module5;
#X text 62 176 enable debugging potentiometers and switches;
#X text 631 199 debugging will also print to the console all messages
sent to the Teensy;
#X floatatom 783 494 5 0 0 2 pin_nr - -, f 5;
#X obj 750 548 pack f f f;
#X floatatom 817 525 5 0 0 2 module_nr - -, f 5;
#X msg 750 571 print \$3m\$2p\$1v;
#X text 748 404 control LEDs of the synthesizer by setting the module
index (starting from 1) \, the module pin number (starting from 0)
and the LED state (0 or 1);
#X text 868 572 <- this is the message sent to the Teensy \, where
"m" stands for "module" \, "p" for "pin" \, and "v" for "value";
#X text 811 665 enable printing the matrix messages. when the patching
update is re-enabled \, the whole matrix is being printed \, while
the patching update is enabled \, single matrix messages are being
printed \, of the form "element \$1 \$2 \$3" \, where \$1 is the input
number of the whole system \, \$2 is the output number \, and \$3 is
the connection state between the input and output (0 or 1);
#X obj 41 551 assemble_analog_inputs 8;
#X text 38 378 set the module index of the module you want to receive
potentiometer data from (starting from 1 \, hence [+ 1] below);
#X obj 41 484 iemguts/oreceive module1;
#X obj 747 874 mtx_print;
#X text 35 23 This patch is for debugging the whole synthesizer by
receiving data from switches \, potentiometers \, connections \, and
sending data to the LEDs. This patch is made according to the modular_syntheiser.pd
patch that comes with this repository. It includes five modules \,
which you can see in [pd modules] in the main patch.;
#X connect 0 0 84 0;
#X connect 1 0 17 0;
#X connect 2 0 86 0;
#X connect 3 0 7 0;
#X connect 6 0 0 0;
#X connect 7 0 52 0;
#X connect 8 0 6 1;
#X connect 9 0 7 1;
#X connect 10 0 11 0;
#X connect 12 0 13 0;
#X connect 13 0 14 0;
#X connect 15 0 13 1;
#X connect 16 0 3 0;
#X connect 17 0 2 0;
#X connect 19 0 24 0;
#X connect 20 0 21 0;
#X connect 21 0 87 0;
#X connect 22 0 20 0;
#X connect 22 1 23 0;
#X connect 24 0 22 0;
#X connect 25 0 24 1;
#X connect 27 0 78 0;
#X connect 28 0 29 0;
#X connect 30 0 28 1;
#X connect 31 0 32 0;
#X connect 33 0 31 1;
#X connect 34 0 35 0;
#X connect 36 0 34 1;
#X connect 37 0 38 0;
#X connect 39 0 37 1;
#X connect 40 0 41 0;
#X connect 42 0 40 1;
#X connect 43 0 44 0;
#X connect 45 0 43 1;
#X connect 46 0 47 0;
#X connect 48 0 46 1;
#X connect 49 0 50 0;
#X connect 51 0 49 1;
#X connect 52 0 4 0;
#X connect 52 1 5 0;
#X connect 53 0 56 0;
#X connect 56 0 58 0;
#X connect 57 0 56 1;
#X connect 58 0 54 0;
#X connect 58 1 55 0;
#X connect 58 2 59 0;
#X connect 60 0 53 0;
#X connect 61 0 64 0;
#X connect 64 0 66 0;
#X connect 65 0 64 1;
#X connect 66 0 62 0;
#X connect 66 1 63 0;
#X connect 67 0 61 0;
#X connect 68 0 71 0;
#X connect 71 0 73 0;
#X connect 72 0 71 1;
#X connect 73 0 69 0;
#X connect 73 1 70 0;
#X connect 74 0 68 0;
#X connect 77 0 78 1;
#X connect 78 0 80 0;
#X connect 79 0 78 2;
#X connect 80 0 26 0;
#X connect 84 0 28 0;
#X connect 84 1 31 0;
#X connect 84 2 34 0;
#X connect 84 3 37 0;
#X connect 84 4 40 0;
#X connect 84 5 43 0;
#X connect 84 6 46 0;
#X connect 84 7 49 0;
#X connect 86 0 6 0;
