#N canvas 616 231 901 614 10;
#X obj 27 40 inlet;
#X obj 27 62 route devices float close symbol;
#X msg 27 130 devices;
#X msg 82 108 open \$1;
#X msg 137 86 close;
#X msg 192 86 devicename \$1;
#X obj 165 320 repack;
#X obj 165 450 s;
#X msg 253 433 symbol module\$1;
#X obj 165 342 spigot;
#X msg 224 289 0;
#X msg 27 294 1;
#X obj 27 250 select 255;
#X text 102 246 0xff denotes the beginning of the data stream;
#N canvas 480 108 684 370 route_data 0;
#X obj 96 59 inlet;
#X obj 96 81 t b f;
#X obj 96 133 f;
#X obj 126 133 + 1;
#X obj 96 155 pack;
#X obj 162 59 inlet;
#X text 168 169 the first byte is the module number and the second
byte sets the number of bytes [repack] should expect;
#X obj 72 248 outlet;
#X obj 261 248 outlet module_nr;
#X obj 126 248 outlet repack_arg;
#X obj 96 177 route 0 1;
#X obj 33 225 unpack;
#X text 32 206 exclude the counter from the rest of the bytes;
#X msg 162 81 0;
#X connect 0 0 1 0;
#X connect 1 0 2 0;
#X connect 1 1 4 1;
#X connect 2 0 3 0;
#X connect 2 0 4 0;
#X connect 3 0 2 1;
#X connect 4 0 10 0;
#X connect 5 0 13 0;
#X connect 10 0 8 0;
#X connect 10 1 9 0;
#X connect 10 2 11 0;
#X connect 11 1 7 0;
#X connect 13 0 2 1;
#X restore 165 267 pd route_data;
#X obj 165 364 t l b;
#X obj 27 272 t b b b b;
#X text 258 54 anything not matching [route]'s args will be input to
[comport] intact (e.g. a [print \$1m\$2p\$3v( message);
#X obj 27 156 comport \$1 \$2;
#X obj 253 342 moses \$3;
#X text 323 316 this is the number of modules used to define the send
name for the [matrix_connections] abstraction or the resolution of
the analog pins of the micro-controller;
#X obj 306 365 sel \$3;
#X obj 306 387 symbol other_data;
#X obj 165 481 r other_data;
#X obj 165 569 s resolution;
#X obj 189 548 s connections;
#X obj 152 173 route open;
#X obj 152 195 sel 1;
#X msg 152 217 print r;
#X text 211 216 as soon as the port opens \, reset the Arduino;
#X text 303 481 data that are not routed to module abstractions are
being groupped under the "other_data" symbol and diffused with an extra
index \, a 0 for the analog pins resolution and a 1 for the connections
data;
#X obj 165 503 route 0 1 2;
#X obj 214 526 s power_off;
#X connect 0 0 1 0;
#X connect 1 0 2 0;
#X connect 1 1 3 0;
#X connect 1 2 4 0;
#X connect 1 3 5 0;
#X connect 1 4 18 0;
#X connect 2 0 18 0;
#X connect 3 0 18 0;
#X connect 4 0 18 0;
#X connect 5 0 18 0;
#X connect 6 0 9 0;
#X connect 8 0 7 1;
#X connect 9 0 15 0;
#X connect 10 0 9 1;
#X connect 11 0 9 1;
#X connect 12 0 16 0;
#X connect 12 1 14 0;
#X connect 14 0 6 0;
#X connect 14 1 6 1;
#X connect 14 2 19 0;
#X connect 15 0 7 0;
#X connect 15 1 14 1;
#X connect 16 0 11 0;
#X connect 16 1 6 0;
#X connect 16 2 14 1;
#X connect 16 3 10 0;
#X connect 18 0 12 0;
#X connect 19 0 8 0;
#X connect 19 1 21 0;
#X connect 21 0 22 0;
#X connect 22 0 7 1;
#X connect 23 0 31 0;
#X connect 26 0 27 0;
#X connect 27 0 28 0;
#X connect 28 0 18 0;
#X connect 31 0 24 0;
#X connect 31 1 25 0;
#X connect 31 2 32 0;
