#N canvas 565 544 930 484 10;
#X obj 27 40 inlet;
#X obj 27 62 route devices float close symbol;
#X msg 27 130 devices;
#X msg 82 108 open \$1;
#X msg 137 86 close;
#X msg 192 86 devicename \$1;
#X obj 165 250 repack;
#X obj 165 400 s;
#X msg 253 383 symbol module\$1;
#X obj 165 272 spigot;
#X msg 224 219 0;
#X msg 27 224 1;
#X obj 27 180 select 255;
#X text 102 176 0xff denotes the beginning of the data stream;
#N canvas 482 110 684 370 route_data 0;
#X obj 96 59 inlet;
#X obj 96 81 t b f;
#X obj 96 133 f;
#X obj 126 133 + 1;
#X obj 96 155 pack;
#X obj 162 59 inlet;
#X text 168 169 the first byte is the module number and the second
byte sets the number of bytes [repack] should expect;
#X obj 72 248 outlet;
#X obj 261 248 outlet module_nr;
#X obj 126 248 outlet repack_arg;
#X obj 96 177 route 0 1;
#X obj 33 225 unpack;
#X text 32 206 exclude the counter from the rest of the bytes;
#X msg 162 81 0;
#X connect 0 0 1 0;
#X connect 1 0 2 0;
#X connect 1 1 4 1;
#X connect 2 0 3 0;
#X connect 2 0 4 0;
#X connect 3 0 2 1;
#X connect 4 0 10 0;
#X connect 5 0 13 0;
#X connect 10 0 8 0;
#X connect 10 1 9 0;
#X connect 10 2 11 0;
#X connect 11 1 7 0;
#X connect 13 0 2 1;
#X restore 165 197 pd route_data;
#X obj 165 294 t l b;
#X obj 27 202 t b b b b;
#X obj 306 339 symbol connections;
#X obj 306 317 t b;
#X text 258 54 anything not matching [route]'s args will be input to
[comport] intact (e.g. a [print \$1m\$2p\$3v( message);
#X obj 27 156 comport \$1 \$2;
#X obj 253 272 moses \$3;
#X obj 368 234 loadbang;
#X obj 368 256 \$3;
#X obj 368 278 + 1;
#X obj 306 295 moses;
#X text 401 254 this is the number of modules used to define the send
name for the [matrix_connections] abstraction or the resolution of
the analog pins of the micro-controller;
#X obj 338 317 symbol resolution;
#X connect 0 0 1 0;
#X connect 1 0 2 0;
#X connect 1 1 3 0;
#X connect 1 2 4 0;
#X connect 1 3 5 0;
#X connect 1 4 20 0;
#X connect 2 0 20 0;
#X connect 3 0 20 0;
#X connect 4 0 20 0;
#X connect 5 0 20 0;
#X connect 6 0 9 0;
#X connect 8 0 7 1;
#X connect 9 0 15 0;
#X connect 10 0 9 1;
#X connect 11 0 9 1;
#X connect 12 0 16 0;
#X connect 12 1 14 0;
#X connect 14 0 6 0;
#X connect 14 1 6 1;
#X connect 14 2 21 0;
#X connect 15 0 7 0;
#X connect 15 1 14 1;
#X connect 16 0 11 0;
#X connect 16 1 6 0;
#X connect 16 2 14 1;
#X connect 16 3 10 0;
#X connect 17 0 7 1;
#X connect 18 0 17 0;
#X connect 20 0 12 0;
#X connect 21 0 8 0;
#X connect 21 1 25 0;
#X connect 22 0 23 0;
#X connect 23 0 24 0;
#X connect 24 0 25 1;
#X connect 25 0 18 0;
#X connect 25 1 27 0;
#X connect 27 0 7 1;
