#N canvas 112 491 663 316 10;
#X obj 100 50 inlet;
#X obj 388 50 namecanvas \$0-this;
#N canvas 678 316 1063 572 guts 0;
#X obj 234 185 * 2;
#X obj 234 207 t f b;
#X obj 280 253 symbol f;
#X msg 280 275 add2 \$1;
#X obj 234 331 s \$0-this;
#X msg 58 456 obj \$1 160 +;
#X msg 82 433 obj \$1 130 * 128;
#X msg 107 410 obj \$1 190 outlet;
#X obj 155 250 + 100;
#X obj 58 265 t f f;
#X obj 137 345 +;
#X obj 105 282 sel 1;
#X msg 137 304 0;
#X obj 58 362 pack;
#X obj 58 384 route 0 1 2;
#X obj 107 492 s \$0-this;
#X obj 576 64 t f b;
#X obj 635 211 +;
#X obj 653 128 * 2;
#X obj 635 236 pack;
#X obj 635 184 t f f;
#X obj 653 105 t f f;
#X obj 576 332 t f f;
#X obj 576 376 pack;
#X obj 576 287 f;
#X msg 576 398 connect \$1 0 \$2 0;
#X obj 667 211 +;
#X obj 753 194 t f f;
#X obj 576 477 s \$0-this;
#X msg 296 224 set obj 100 100 unpack;
#X obj 576 309 t f f;
#X obj 716 326 t f f;
#X obj 716 370 pack;
#X msg 716 392 connect \$2 0 \$1 1;
#X msg 234 309 obj 100 100 unpack f f f f;
#X obj 35 119 moses 1;
#X obj 35 92 i \$1;
#X msg 35 144 2;
#N canvas 149 82 450 300 loop 0;
#X obj 125 45 inlet;
#X obj 125 89 until;
#X obj 125 158 f;
#X obj 155 158 + 1;
#X obj 125 67 t f b f;
#X obj 125 111 t b b;
#X msg 143 135 1;
#X obj 125 180 sel;
#X obj 207 128 outlet;
#X obj 125 202 outlet done;
#X connect 0 0 4 0;
#X connect 1 0 5 0;
#X connect 2 0 3 0;
#X connect 2 0 7 0;
#X connect 3 0 2 1;
#X connect 4 0 1 0;
#X connect 4 1 6 0;
#X connect 4 2 7 1;
#X connect 5 0 2 0;
#X connect 5 1 8 0;
#X connect 6 0 2 1;
#X connect 7 0 9 0;
#X restore 234 230 pd loop;
#N canvas 607 134 422 326 loop 0;
#X obj 125 45 inlet;
#X obj 125 89 until;
#X obj 186 128 f;
#X obj 216 128 + 1;
#X msg 204 84 0;
#X obj 186 150 outlet count;
#X obj 125 177 outlet bang;
#X obj 125 67 t f b;
#X obj 125 111 t b b;
#X connect 0 0 7 0;
#X connect 1 0 8 0;
#X connect 2 0 3 0;
#X connect 2 0 5 0;
#X connect 3 0 2 1;
#X connect 4 0 2 1;
#X connect 7 0 1 0;
#X connect 7 1 4 0;
#X connect 8 0 6 0;
#X connect 8 1 2 0;
#X restore 58 211 pd loop;
#N canvas 609 136 414 300 loop 0;
#X obj 125 45 inlet;
#X obj 125 112 until;
#X obj 125 162 f;
#X obj 155 162 + 1;
#X msg 143 139 0;
#X obj 125 186 outlet count;
#X msg 125 67 3;
#X obj 125 90 t f b;
#X connect 0 0 6 0;
#X connect 1 0 2 0;
#X connect 2 0 3 0;
#X connect 2 0 5 0;
#X connect 3 0 2 1;
#X connect 4 0 2 1;
#X connect 6 0 7 0;
#X connect 7 0 1 0;
#X connect 7 1 4 0;
#X restore 58 233 pd loop;
#N canvas 273 236 417 256 loop 0;
#X obj 125 45 inlet;
#X obj 125 89 until;
#X obj 224 128 f;
#X obj 254 128 + 1;
#X obj 125 111 t b b;
#X msg 242 84 0;
#X obj 125 67 t f b;
#X obj 224 150 outlet count;
#X obj 125 150 outlet bang;
#X connect 0 0 6 0;
#X connect 1 0 4 0;
#X connect 2 0 3 0;
#X connect 2 0 7 0;
#X connect 3 0 2 1;
#X connect 4 0 8 0;
#X connect 4 1 2 0;
#X connect 5 0 2 1;
#X connect 6 0 1 0;
#X connect 6 1 5 0;
#X restore 576 88 pd loop;
#N canvas 149 82 450 300 loop 0;
#X obj 125 45 inlet;
#X obj 125 112 until;
#X obj 125 158 f;
#X obj 155 158 + 1;
#X obj 125 90 t f b f;
#X obj 125 203 sel;
#X obj 125 227 outlet done;
#X msg 143 135 0;
#X obj 125 180 t f f;
#X obj 157 203 outlet count;
#X obj 171 112 - 1;
#X msg 125 67 2;
#X connect 0 0 11 0;
#X connect 1 0 2 0;
#X connect 2 0 3 0;
#X connect 2 0 8 0;
#X connect 3 0 2 1;
#X connect 4 0 1 0;
#X connect 4 1 7 0;
#X connect 4 2 10 0;
#X connect 5 0 6 0;
#X connect 7 0 2 1;
#X connect 8 0 5 0;
#X connect 8 1 9 0;
#X connect 10 0 5 1;
#X connect 11 0 4 0;
#X restore 576 167 pd loop;
#X obj 35 168 t f f f;
#X msg 105 304 18;
#X obj 155 228 * 63;
#X obj 35 68 inlet;
#X msg 753 81 connect 0 0 4 0;
#X msg 635 259 connect 4 \$1 \$2 0;
#X obj 753 144 + 5;
#X obj 753 122 * 3;
#X text 852 391 [* ] to [+ ];
#X text 451 400 [+ ] to [outlet];
#X text 769 258 [unpack] to [+ ] and [* ];
#X text 875 83 [inlet] to [unpack];
#X obj 608 354 + 2;
#X obj 748 348 + 1;
#X connect 0 0 1 0;
#X connect 1 0 38 0;
#X connect 1 1 29 0;
#X connect 2 0 3 0;
#X connect 3 0 34 0;
#X connect 5 0 15 0;
#X connect 6 0 15 0;
#X connect 7 0 15 0;
#X connect 8 0 10 1;
#X connect 9 0 13 0;
#X connect 9 1 11 0;
#X connect 10 0 13 1;
#X connect 11 0 44 0;
#X connect 11 1 12 0;
#X connect 12 0 10 0;
#X connect 13 0 14 0;
#X connect 14 0 5 0;
#X connect 14 1 6 0;
#X connect 14 2 7 0;
#X connect 16 0 41 0;
#X connect 16 1 47 0;
#X connect 17 0 19 0;
#X connect 18 0 17 1;
#X connect 19 0 48 0;
#X connect 20 0 17 0;
#X connect 20 1 26 0;
#X connect 21 0 18 0;
#X connect 21 1 50 0;
#X connect 22 0 23 0;
#X connect 22 1 55 0;
#X connect 23 0 25 0;
#X connect 24 0 30 0;
#X connect 25 0 28 0;
#X connect 26 0 19 1;
#X connect 27 0 26 1;
#X connect 27 1 24 1;
#X connect 29 0 34 0;
#X connect 30 0 22 0;
#X connect 30 1 31 0;
#X connect 31 0 32 0;
#X connect 31 1 56 0;
#X connect 32 0 33 0;
#X connect 33 0 28 0;
#X connect 34 0 4 0;
#X connect 35 0 37 0;
#X connect 35 1 43 0;
#X connect 36 0 35 0;
#X connect 37 0 43 0;
#X connect 38 0 34 0;
#X connect 38 1 2 0;
#X connect 39 0 40 0;
#X connect 39 1 45 0;
#X connect 40 0 9 0;
#X connect 41 0 42 0;
#X connect 41 1 21 0;
#X connect 42 0 24 0;
#X connect 42 1 20 0;
#X connect 43 0 16 0;
#X connect 43 1 39 0;
#X connect 43 2 0 0;
#X connect 44 0 10 0;
#X connect 45 0 8 0;
#X connect 46 0 36 0;
#X connect 47 0 28 0;
#X connect 48 0 28 0;
#X connect 49 0 27 0;
#X connect 50 0 49 0;
#X connect 55 0 23 1;
#X connect 56 0 32 1;
#X restore 525 50 pd guts;
#X obj 525 27 initbang;
#X connect 3 0 2 0;
