#N canvas 1 82 317 253 10;
#N canvas 1 82 608 586 accumulate_connections 0;
#X obj 26 234 swap;
#X obj 26 256 pack;
#X obj 26 339 f;
#X obj 26 278 route 1 0;
#X text 57 328 when the patching update is deactivated \, store value
and output it when it is reactivated;
#X obj 26 555 outlet;
#X obj 26 140 inlet state;
#X obj 116 217 t f f;
#X obj 148 239 sel 1;
#X text 147 260 bang when patching is updated;
#X obj 35 304 loadbang;
#N canvas 498 111 556 302 accumulate-connection-states 0;
#X obj 37 104 +;
#X obj 37 59 * 2;
#X obj 37 81 - 1;
#X obj 83 170 > 0;
#X msg 37 170 0;
#X obj 37 192 t f f;
#X obj 83 209 outlet;
#X obj 37 36 inlet switch_state;
#X obj 37 148 moses 0;
#X obj 37 126 t f f;
#X text 65 62 map 0 to 1 to -1 to 1 so that a 1 will add one and a
0 will subtract one from the states accumulation;
#X connect 0 0 9 0;
#X connect 1 0 2 0;
#X connect 2 0 0 0;
#X connect 3 0 6 0;
#X connect 4 0 5 0;
#X connect 5 0 0 1;
#X connect 5 1 6 0;
#X connect 7 0 1 0;
#X connect 8 0 4 0;
#X connect 8 1 3 0;
#X connect 9 0 8 0;
#X connect 9 1 0 1;
#X restore 26 164 pd accumulate-connection-states;
#X obj 26 385 sel 0;
#X obj 26 505 spigot;
#X obj 65 483 == 0;
#X obj 128 376 r mtx_ramp;
#X obj 128 398 moses 15;
#X obj 26 459 del 15;
#X msg 26 527 0;
#X obj 26 361 t f f;
#X text 76 505 if a sequence of ones and zeros enter this abstraction
\, even if the last number is 1 \, [del] will output a 0 fifteen ms
after the last 1 . using a [spigot] after [del] will prevent this;
#X obj 116 195 r update_patching;
#X text 242 195 comming from [matrix_connections];
#X obj 236 359 r matrix_ramp_time;
#X obj 128 420 t b;
#X obj 128 442 15;
#X obj 236 381 t f f;
#X text 20 22 since we're receiving a 1 every time new connection is
made \, and a 0 every time a connection is being broken \, here we're
accumulating 1s when we receive a 1 and -1s when we receive a 0 so
we can keep track of the connection state of the current module. this
helps if we want to control a [switch~] so we can control the DSP of
the module \, depending on its activity;
#X connect 0 0 1 0;
#X connect 0 1 1 1;
#X connect 1 0 3 0;
#X connect 2 0 19 0;
#X connect 3 0 2 0;
#X connect 3 1 2 1;
#X connect 6 0 11 0;
#X connect 7 0 0 1;
#X connect 7 1 8 0;
#X connect 8 0 2 0;
#X connect 10 0 2 0;
#X connect 11 0 0 0;
#X connect 12 0 17 0;
#X connect 12 1 5 0;
#X connect 13 0 18 0;
#X connect 14 0 13 1;
#X connect 15 0 16 0;
#X connect 16 0 24 0;
#X connect 16 1 17 1;
#X connect 17 0 13 0;
#X connect 18 0 5 0;
#X connect 19 0 12 0;
#X connect 19 1 14 0;
#X connect 21 0 7 0;
#X connect 23 0 26 0;
#X connect 24 0 25 0;
#X connect 25 0 17 1;
#X connect 26 0 16 1;
#X connect 26 1 25 0;
#X restore 74 148 pd accumulate_connections;
#X obj 74 170 change;
#X obj 74 192 outlet;
#X obj 74 18 loadbang;
#X msg 74 83 symbol \$1-inlet\$2;
#X obj 74 62 pack s \$1;
#X obj 74 40 canvasdollarzero 1;
#X obj 74 126 oreceive;
#X connect 0 0 1 0;
#X connect 1 0 2 0;
#X connect 3 0 6 0;
#X connect 4 0 7 0;
#X connect 5 0 4 0;
#X connect 6 0 5 0;
#X connect 7 0 0 0;
