#N canvas 1 82 329 238 10;
#X obj 74 29 loadbang;
#X obj 74 73 pack s \$1;
#X obj 74 51 canvasdollarzero 1;
#X obj 74 137 oreceive;
#X obj 74 159 r~;
#X obj 74 181 outlet~;
#X msg 74 94 symbol \$1-input\$2;
#X connect 0 0 2 0;
#X connect 1 0 6 0;
#X connect 2 0 1 0;
#X connect 3 0 4 0;
#X connect 4 0 5 0;
#X connect 6 0 3 0;
