#N canvas 515 260 711 383 10;
#X obj 214 261 list fromsymbol;
#X obj 59 278 list;
#X text 140 335 this goes to [comport];
#X obj 27 191 t b b;
#X obj 59 335 s ardu_mess;
#X obj 27 141 spigot;
#X obj 27 163 t b b;
#X msg 66 119 0;
#X msg 191 124 1;
#X obj 191 52 t b f b;
#N canvas 184 559 372 236 activate_module 0;
#X obj 83 53 inlet;
#X obj 83 97 t b b;
#X msg 144 114 0;
#X obj 188 36 inlet reset;
#X msg 188 58 1;
#X obj 83 147 s module_active;
#X obj 83 75 spigot 1;
#X obj 83 125 \$1;
#X connect 0 0 6 0;
#X connect 1 0 7 0;
#X connect 1 1 2 0;
#X connect 2 0 6 1;
#X connect 3 0 4 0;
#X connect 4 0 6 1;
#X connect 6 0 1 0;
#X connect 7 0 5 0;
#X restore 284 69 pd activate_module;
#X obj 191 25 inlet activity_val;
#X msg 214 239 symbol \$2m\$1a;
#X text 96 286 store the acctivity message and output it when the Teensy
serial buffer has been emptied;
#X text 187 144 only if a change in the activity has been made \, let
the buffer free bang go through;
#X text 283 91 let [arduino_data] know this module has had its activity
changed;
#X obj 27 25 r buffer_free\$1;
#X obj 214 217 pack f \$1;
#N canvas 1 82 474 262 disable_implicit_activity_ctl 0;
#X obj 40 73 loadbang;
#X obj 40 95 canvasdollarzero 1;
#X obj 40 117 t b s;
#X msg 40 139 0;
#X obj 40 178 s;
#X msg 72 161 \$1-activity;
#X text 24 19 this goes into [module_data] of this module abstraction
;
#X connect 0 0 1 0;
#X connect 1 0 2 0;
#X connect 2 0 3 0;
#X connect 2 1 5 0;
#X connect 3 0 4 0;
#X connect 5 0 4 1;
#X restore 411 25 pd disable_implicit_activity_ctl;
#X connect 0 0 1 1;
#X connect 1 0 4 0;
#X connect 3 0 10 1;
#X connect 3 1 1 0;
#X connect 5 0 6 0;
#X connect 6 0 3 0;
#X connect 6 1 7 0;
#X connect 7 0 5 1;
#X connect 8 0 5 1;
#X connect 9 0 8 0;
#X connect 9 1 17 0;
#X connect 9 2 10 0;
#X connect 11 0 9 0;
#X connect 12 0 0 0;
#X connect 16 0 5 0;
#X connect 17 0 12 0;
