#N canvas 372 560 663 316 10;
#X obj 388 50 namecanvas \$0-this;
#N canvas 622 196 1131 755 guts 0;
#X obj 234 207 t f b;
#X obj 280 253 symbol f;
#X msg 280 275 add2 \$1;
#X obj 234 331 s \$0-this;
#X obj 155 250 + 100;
#X obj 58 265 t f f;
#X obj 137 367 +;
#X obj 105 304 sel 1;
#X msg 137 326 0;
#X obj 58 384 pack;
#X obj 127 574 s \$0-this;
#X obj 576 54 t f b;
#X obj 635 401 +;
#X obj 635 426 pack;
#X obj 635 374 t f f;
#X obj 653 95 t f f;
#X obj 667 401 +;
#X obj 972 532 s \$0-this;
#X msg 296 224 set obj 100 100 unpack;
#X msg 234 309 obj 100 100 unpack f f f f f f f f;
#X obj 35 119 moses 1;
#X obj 35 92 i \$1;
#N canvas 149 82 450 300 loop 0;
#X obj 125 45 inlet;
#X obj 125 89 until;
#X obj 125 158 f;
#X obj 155 158 + 1;
#X obj 125 67 t f b f;
#X obj 125 111 t b b;
#X msg 143 135 1;
#X obj 125 180 sel;
#X obj 207 128 outlet;
#X obj 125 202 outlet done;
#X connect 0 0 4 0;
#X connect 1 0 5 0;
#X connect 2 0 3 0;
#X connect 2 0 7 0;
#X connect 3 0 2 1;
#X connect 4 0 1 0;
#X connect 4 1 6 0;
#X connect 4 2 7 1;
#X connect 5 0 2 0;
#X connect 5 1 8 0;
#X connect 6 0 2 1;
#X connect 7 0 9 0;
#X restore 234 230 pd loop;
#N canvas 601 131 422 326 loop 0;
#X obj 125 45 inlet;
#X obj 125 89 until;
#X obj 186 128 f;
#X obj 216 128 + 1;
#X msg 204 84 0;
#X obj 186 150 outlet count;
#X obj 125 177 outlet bang;
#X obj 125 67 t f b;
#X obj 125 111 t b b;
#X connect 0 0 7 0;
#X connect 1 0 8 0;
#X connect 2 0 3 0;
#X connect 2 0 5 0;
#X connect 3 0 2 1;
#X connect 4 0 2 1;
#X connect 7 0 1 0;
#X connect 7 1 4 0;
#X connect 8 0 6 0;
#X connect 8 1 2 0;
#X restore 58 211 pd loop;
#N canvas 603 133 414 300 loop 0;
#X obj 125 45 inlet;
#X obj 125 112 until;
#X obj 125 162 f;
#X obj 155 162 + 1;
#X msg 143 139 0;
#X obj 125 186 outlet count;
#X obj 125 90 t f b;
#X msg 125 67 5;
#X connect 0 0 7 0;
#X connect 1 0 2 0;
#X connect 2 0 3 0;
#X connect 2 0 5 0;
#X connect 3 0 2 1;
#X connect 4 0 2 1;
#X connect 6 0 1 0;
#X connect 6 1 4 0;
#X connect 7 0 6 0;
#X restore 58 233 pd loop;
#N canvas 265 232 417 256 loop 0;
#X obj 125 45 inlet;
#X obj 125 89 until;
#X obj 224 128 f;
#X obj 254 128 + 1;
#X obj 125 111 t b b;
#X msg 242 84 0;
#X obj 125 67 t f b;
#X obj 224 150 outlet count;
#X obj 125 150 outlet bang;
#X connect 0 0 6 0;
#X connect 1 0 4 0;
#X connect 2 0 3 0;
#X connect 2 0 7 0;
#X connect 3 0 2 1;
#X connect 4 0 8 0;
#X connect 4 1 2 0;
#X connect 5 0 2 1;
#X connect 6 0 1 0;
#X connect 6 1 5 0;
#X restore 576 78 pd loop;
#N canvas 137 83 450 300 loop 0;
#X obj 125 45 inlet;
#X obj 125 112 until;
#X obj 125 158 f;
#X obj 155 158 + 1;
#X obj 125 90 t f b f;
#X obj 125 203 sel;
#X obj 125 227 outlet done;
#X msg 143 135 0;
#X obj 125 180 t f f;
#X obj 157 203 outlet count;
#X obj 171 112 - 1;
#X msg 125 67 2;
#X connect 0 0 11 0;
#X connect 1 0 2 0;
#X connect 2 0 3 0;
#X connect 2 0 8 0;
#X connect 3 0 2 1;
#X connect 4 0 1 0;
#X connect 4 1 7 0;
#X connect 4 2 10 0;
#X connect 5 0 6 0;
#X connect 7 0 2 1;
#X connect 8 0 5 0;
#X connect 8 1 9 0;
#X connect 10 0 5 1;
#X connect 11 0 4 0;
#X restore 576 357 pd loop;
#X obj 35 168 t f f f;
#X obj 35 68 inlet;
#X obj 753 134 + 5;
#X text 748 591 [* ] to [+ ];
#X text 688 682 [+ ] to [outlet];
#X text 875 73 [inlet] to [unpack];
#X msg 35 144 2;
#X obj 234 185 * 4;
#X msg 75 501 obj \$1 130 bug13;
#X msg 110 455 obj \$1 160 * 128;
#X msg 92 478 obj \$1 190 +;
#X msg 127 432 obj \$1 210 outlet;
#X obj 58 406 route 0 1 2 3 4;
#X msg 58 523 obj \$1 130 bug13;
#X obj 105 282 % 2;
#X msg 753 71 connect 3 0 4 0;
#X obj 753 112 * 5;
#X text 752 307 [unpack] to two [bug13];
#X msg 105 326 40;
#X obj 635 162 +;
#X obj 753 172 t f f;
#N canvas 139 83 450 300 loop 0;
#X obj 125 45 inlet;
#X obj 125 112 until;
#X obj 125 158 f;
#X obj 155 158 + 1;
#X obj 125 90 t f b f;
#X obj 125 203 sel;
#X obj 125 227 outlet done;
#X msg 143 135 0;
#X obj 125 180 t f f;
#X obj 157 203 outlet count;
#X obj 171 112 - 1;
#X msg 125 67 4;
#X connect 0 0 11 0;
#X connect 1 0 2 0;
#X connect 2 0 3 0;
#X connect 2 0 8 0;
#X connect 3 0 2 1;
#X connect 4 0 1 0;
#X connect 4 1 7 0;
#X connect 4 2 10 0;
#X connect 5 0 6 0;
#X connect 7 0 2 1;
#X connect 8 0 5 0;
#X connect 8 1 9 0;
#X connect 10 0 5 1;
#X connect 11 0 4 0;
#X restore 576 145 pd loop;
#X obj 635 184 t f f;
#X obj 662 206 % 2;
#X obj 662 228 t f f;
#X obj 653 118 * 4;
#X obj 738 266 f;
#X obj 766 266 + 1;
#X obj 738 245 sel 0;
#X obj 635 283 pack f f f;
#X msg 635 307 connect 4 \$1 \$3 \$2;
#X obj 155 228 * 80;
#X msg 635 449 connect \$1 0 \$2 0;
#X obj 780 340 t f f;
#X obj 807 362 + 2;
#X text 754 447 [bug13] to [+ ] and [* 128];
#X obj 807 384 t f f;
#X obj 576 485 f;
#X obj 629 524 t f f;
#X obj 629 570 pack;
#X obj 656 548 + 1;
#X msg 629 592 connect \$2 0 \$1 1;
#X obj 576 507 t f f;
#X obj 576 614 t f f;
#X obj 576 660 pack;
#X msg 576 682 connect \$1 0 \$2 0;
#X obj 603 638 + 2;
#X connect 0 0 22 0;
#X connect 0 1 18 0;
#X connect 1 0 2 0;
#X connect 2 0 19 0;
#X connect 4 0 6 1;
#X connect 5 0 9 0;
#X connect 5 1 41 0;
#X connect 6 0 9 1;
#X connect 7 0 45 0;
#X connect 7 1 8 0;
#X connect 8 0 6 0;
#X connect 9 0 39 0;
#X connect 11 0 25 0;
#X connect 11 1 42 0;
#X connect 12 0 13 0;
#X connect 13 0 59 0;
#X connect 14 0 12 0;
#X connect 14 1 16 0;
#X connect 15 0 52 0;
#X connect 15 1 43 0;
#X connect 16 0 13 1;
#X connect 18 0 19 0;
#X connect 19 0 3 0;
#X connect 20 0 33 0;
#X connect 20 1 27 0;
#X connect 21 0 20 0;
#X connect 22 0 19 0;
#X connect 22 1 1 0;
#X connect 23 0 24 0;
#X connect 23 1 58 0;
#X connect 24 0 5 0;
#X connect 25 0 48 0;
#X connect 25 1 15 0;
#X connect 26 0 64 0;
#X connect 26 1 14 0;
#X connect 27 0 11 0;
#X connect 27 1 23 0;
#X connect 27 2 34 0;
#X connect 28 0 21 0;
#X connect 29 0 47 0;
#X connect 33 0 27 0;
#X connect 34 0 0 0;
#X connect 35 0 10 0;
#X connect 36 0 10 0;
#X connect 37 0 10 0;
#X connect 38 0 10 0;
#X connect 39 0 40 0;
#X connect 39 1 35 0;
#X connect 39 2 37 0;
#X connect 39 3 36 0;
#X connect 39 4 38 0;
#X connect 40 0 10 0;
#X connect 41 0 7 0;
#X connect 42 0 17 0;
#X connect 43 0 29 0;
#X connect 45 0 6 0;
#X connect 46 0 49 0;
#X connect 47 0 53 1;
#X connect 47 1 60 0;
#X connect 48 0 26 0;
#X connect 48 1 46 0;
#X connect 49 0 56 0;
#X connect 49 1 50 0;
#X connect 50 0 51 0;
#X connect 51 0 56 1;
#X connect 51 1 55 0;
#X connect 52 0 46 1;
#X connect 53 0 54 0;
#X connect 53 0 56 2;
#X connect 54 0 53 1;
#X connect 55 0 53 0;
#X connect 56 0 57 0;
#X connect 57 0 17 0;
#X connect 58 0 4 0;
#X connect 59 0 17 0;
#X connect 60 0 12 1;
#X connect 60 1 61 0;
#X connect 61 0 63 0;
#X connect 63 0 16 1;
#X connect 63 1 64 1;
#X connect 64 0 69 0;
#X connect 65 0 66 0;
#X connect 65 1 67 0;
#X connect 66 0 68 0;
#X connect 67 0 66 1;
#X connect 68 0 17 0;
#X connect 69 0 70 0;
#X connect 69 1 65 0;
#X connect 70 0 71 0;
#X connect 70 1 73 0;
#X connect 71 0 72 0;
#X connect 72 0 17 0;
#X connect 73 0 71 1;
#X restore 525 50 pd guts;
#X obj 525 27 initbang;
#X obj 100 50 inlet;
#X connect 2 0 1 0;
