#N canvas 336 213 450 300 10;
#X obj 106 145 *;
#X obj 106 167 +;
#X obj 106 189 t f f;
#X obj 121 97 swap 1;
#N canvas 1 83 334 229 round_int 0;
#X obj 85 83 inlet;
#X obj 85 105 + 0.5;
#X obj 85 127 i;
#X obj 85 149 outlet;
#X connect 0 0 1 0;
#X connect 1 0 2 0;
#X connect 2 0 3 0;
#X restore 106 231 pd round_int;
#X obj 106 253 outlet;
#X obj 186 206 * \$1;
#X obj 121 122 -;
#X obj 121 53 loadbang;
#X obj 121 75 \$1;
#X obj 106 17 inlet;
#X obj 180 17 inlet;
#X obj 180 39 t f f;
#X connect 0 0 1 0;
#X connect 1 0 2 0;
#X connect 2 0 4 0;
#X connect 2 1 6 0;
#X connect 3 0 7 0;
#X connect 3 1 7 1;
#X connect 4 0 5 0;
#X connect 6 0 1 1;
#X connect 7 0 0 1;
#X connect 8 0 9 0;
#X connect 9 0 3 0;
#X connect 10 0 0 0;
#X connect 11 0 12 0;
#X connect 12 0 3 0;
#X connect 12 1 6 1;
