#N canvas 177 108 653 387 10;
#X obj 20 188 until;
#X obj 20 213 f;
#X obj 20 238 &;
#X obj 20 118 +;
#X obj 51 101 * 128;
#X obj 115 157 swap 2;
#X obj 115 179 pow;
#X obj 52 213 * 2;
#X obj 20 163 f;
#X obj 20 260 != 0;
#X obj 20 140 t b b f;
#X text 134 124 start spliting bits from the pin number the first switch
is attached to;
#X obj 20 35 inlet;
#X obj 20 59 unpack f f f f;
#X text 135 55 incoming bytes are input chip byte (split in two) \,
number of switches of current module \, and number of pin the first
switch is wired to;
#X obj 413 181 namecanvas \$0-this;
#N canvas 890 310 510 541 guts 0;
#X obj 35 119 moses 1;
#X obj 35 92 i \$1;
#X obj 35 46 spigot 1;
#X obj 35 68 t b b;
#X msg 103 45 0;
#X obj 35 24 r _initbang;
#X msg 35 144 1;
#X obj 58 189 until;
#X obj 58 211 f;
#X obj 88 211 + 1;
#X obj 58 255 + 20;
#X obj 227 206 until;
#X msg 309 245 add2 f;
#X msg 125 357 connect 17 0 18 0;
#X obj 35 363 until;
#X obj 35 385 f;
#X obj 65 385 + 1;
#X obj 35 407 t f f;
#X obj 67 430 + 19;
#X obj 35 454 pack;
#X msg 35 477 connect 18 \$1 \$2 0;
#X obj 35 499 s \$0-this;
#X obj 35 166 t f f f;
#X obj 35 340 t f b;
#X obj 58 299 s \$0-this;
#X obj 309 289 s \$0-this;
#X obj 227 228 t b b;
#X obj 227 250 1;
#X obj 257 250 + 1;
#X obj 227 272 sel;
#X obj 227 183 t f f b;
#X msg 339 202 set obj 20 320 unpack;
#X msg 58 277 obj \$1 350 outlet;
#X msg 309 267 obj 20 320 unpack f f;
#X obj 58 233 * 67;
#X connect 0 0 6 0;
#X connect 0 1 22 0;
#X connect 1 0 0 0;
#X connect 2 0 3 0;
#X connect 3 0 1 0;
#X connect 3 1 4 0;
#X connect 4 0 2 1;
#X connect 5 0 2 0;
#X connect 6 0 22 0;
#X connect 7 0 8 0;
#X connect 8 0 9 0;
#X connect 8 0 34 0;
#X connect 9 0 8 1;
#X connect 10 0 32 0;
#X connect 11 0 26 0;
#X connect 12 0 33 0;
#X connect 13 0 21 0;
#X connect 14 0 15 0;
#X connect 15 0 16 0;
#X connect 15 0 17 0;
#X connect 16 0 15 1;
#X connect 17 0 19 0;
#X connect 17 1 18 0;
#X connect 18 0 19 1;
#X connect 19 0 20 0;
#X connect 20 0 21 0;
#X connect 22 0 23 0;
#X connect 22 1 7 0;
#X connect 22 2 30 0;
#X connect 23 0 14 0;
#X connect 23 1 13 0;
#X connect 26 0 27 0;
#X connect 26 1 12 0;
#X connect 27 0 28 0;
#X connect 27 0 29 0;
#X connect 28 0 27 1;
#X connect 29 0 33 0;
#X connect 30 0 11 0;
#X connect 30 1 29 1;
#X connect 30 2 31 0;
#X connect 31 0 33 0;
#X connect 32 0 24 0;
#X connect 33 0 25 0;
#X connect 34 0 10 0;
#X restore 413 207 pd guts;
#X obj 20 283 repack \$1;
#X connect 0 0 1 0;
#X connect 1 0 7 0;
#X connect 1 0 2 0;
#X connect 2 0 9 0;
#X connect 3 0 10 0;
#X connect 4 0 3 1;
#X connect 5 0 6 0;
#X connect 5 1 6 1;
#X connect 6 0 1 1;
#X connect 7 0 1 1;
#X connect 8 0 0 0;
#X connect 9 0 17 0;
#X connect 10 0 8 0;
#X connect 10 2 2 1;
#X connect 12 0 13 0;
#X connect 13 0 3 0;
#X connect 13 1 4 0;
#X connect 13 2 8 1;
#X connect 13 3 5 0;
_initbang bang;
