#N canvas 180 420 711 656 10;
#X obj 211 510 list fromsymbol;
#X obj 56 527 list;
#X text 74 546 store the LED message and output it when the Teensy
serial buffer has been emptied;
#X text 184 393 only if a change to the LED has been made \, let the
buffer free bang go through;
#X obj 188 279 inlet LEDval;
#X text 137 584 this goes to [comport];
#X obj 24 440 t b b;
#X obj 23 52 loadbang;
#X obj 23 74 canvasdollarzero 1;
#X msg 23 97 symbol \$1-module_ndx;
#X obj 23 119 oreceive;
#X obj 211 466 pack f \$1 f;
#X msg 211 488 symbol \$3m\$2p\$1v;
#X text 21 161 receive the index of the module so we can give only
one argument to this abstraction \, the LED pin number;
#X text 18 18 argument is LED pin number;
#X obj 56 584 s ardu_mess;
#X obj 24 308 oreceive;
#X msg 24 285 symbol buffer_free\$1;
#X obj 23 141 s \$0-module_ndx;
#X obj 285 444 r \$0-module_ndx;
#X obj 24 263 r \$0-module_ndx;
#X obj 24 390 spigot;
#X obj 24 412 t b b;
#X msg 63 368 0;
#X msg 188 373 1;
#X obj 188 301 t b f b;
#N canvas 184 559 372 236 activate_module 0;
#X obj 83 53 inlet;
#X obj 83 97 t b b;
#X msg 144 114 0;
#X obj 188 36 inlet reset;
#X msg 188 58 1;
#X obj 101 142 r \$0-module_ndx;
#X obj 83 165 f;
#X obj 83 187 s module_active;
#X obj 83 75 spigot 1;
#X connect 0 0 8 0;
#X connect 1 0 6 0;
#X connect 1 1 2 0;
#X connect 2 0 8 1;
#X connect 3 0 4 0;
#X connect 4 0 8 1;
#X connect 5 0 6 1;
#X connect 6 0 7 0;
#X connect 8 0 1 0;
#X restore 281 318 pd activate_module;
#X text 280 340 let [arduino_data] know this module has an LED value
(or more) changed;
#X connect 0 0 1 1;
#X connect 1 0 15 0;
#X connect 4 0 25 0;
#X connect 6 0 26 1;
#X connect 6 1 1 0;
#X connect 7 0 8 0;
#X connect 8 0 9 0;
#X connect 9 0 10 0;
#X connect 10 0 18 0;
#X connect 11 0 12 0;
#X connect 12 0 0 0;
#X connect 16 0 21 0;
#X connect 17 0 16 0;
#X connect 19 0 11 2;
#X connect 20 0 17 0;
#X connect 21 0 22 0;
#X connect 22 0 6 0;
#X connect 22 1 23 0;
#X connect 23 0 21 1;
#X connect 24 0 21 1;
#X connect 25 0 24 0;
#X connect 25 1 11 0;
#X connect 25 2 26 0;
