#N canvas 350 111 457 294 10;
#X obj 36 56 inlet;
#X obj 313 58 loadbang;
#X obj 313 79 t b b;
#X obj 36 192 *;
#X obj 36 216 outlet;
#X obj 313 175 /;
#X obj 84 80 t b f;
#X obj 84 58 inlet to_low;
#X obj 191 58 inlet to_high;
#X obj 313 151 \$2;
#X obj 340 151 \$1;
#X obj 325 104 r \$0-high;
#X obj 347 126 r \$0-low;
#X obj 84 122 s \$0-high;
#X obj 111 101 s \$0-low;
#X obj 191 80 s \$0-high;
#X connect 0 0 3 0;
#X connect 1 0 2 0;
#X connect 2 0 9 0;
#X connect 2 1 10 0;
#X connect 3 0 4 0;
#X connect 5 0 3 1;
#X connect 6 0 13 0;
#X connect 6 1 14 0;
#X connect 7 0 6 0;
#X connect 8 0 15 0;
#X connect 9 0 5 0;
#X connect 10 0 5 1;
#X connect 11 0 9 0;
#X connect 12 0 10 0;
