#N canvas 634 273 670 448 10;
#X obj 27 162 unpack;
#X obj 27 209 t f f;
#X obj 121 179 t f f;
#X obj 191 325 pack;
#X obj 461 376 outlet;
#N canvas 1048 590 307 185 pass_to_next_module 0;
#X obj 94 31 loadbang;
#X obj 94 53 \$2;
#X obj 94 75 + 1;
#X msg 94 97 symbol module_data\$1;
#X obj 27 92 inlet;
#X obj 27 114 s;
#X connect 0 0 1 0;
#X connect 1 0 2 0;
#X connect 2 0 3 0;
#X connect 3 0 5 1;
#X connect 4 0 5 0;
#X restore 191 347 pd pass_to_next_module;
#X obj 27 63 r module_data\$2;
#X msg 27 134 0 0;
#X obj 27 112 route bang list;
#N canvas 1 82 608 586 accumulate_connections 0;
#X obj 26 234 swap;
#X obj 26 256 pack;
#X obj 26 339 f;
#X obj 26 278 route 1 0;
#X text 57 328 when the patching update is deactivated \, store value
and output it when it is reactivated;
#X obj 26 555 outlet;
#X obj 26 140 inlet state;
#X obj 116 217 t f f;
#X obj 148 239 sel 1;
#X text 147 260 bang when patching is updated;
#X obj 35 304 loadbang;
#N canvas 498 111 556 302 accumulate-connection-states 0;
#X obj 37 104 +;
#X obj 37 59 * 2;
#X obj 37 81 - 1;
#X obj 83 170 > 0;
#X msg 37 170 0;
#X obj 37 192 t f f;
#X obj 83 209 outlet;
#X obj 37 36 inlet switch_state;
#X obj 37 148 moses 0;
#X obj 37 126 t f f;
#X text 65 62 map 0 to 1 to -1 to 1 so that a 1 will add one and a
0 will subtract one from the states accumulation;
#X connect 0 0 9 0;
#X connect 1 0 2 0;
#X connect 2 0 0 0;
#X connect 3 0 6 0;
#X connect 4 0 5 0;
#X connect 5 0 0 1;
#X connect 5 1 6 0;
#X connect 7 0 1 0;
#X connect 8 0 4 0;
#X connect 8 1 3 0;
#X connect 9 0 8 0;
#X connect 9 1 0 1;
#X restore 26 164 pd accumulate-connection-states;
#X obj 26 385 sel 0;
#X obj 26 505 spigot;
#X obj 65 483 == 0;
#X obj 128 376 r mtx_ramp;
#X obj 128 398 moses 15;
#X obj 26 459 del 15;
#X msg 26 527 0;
#X obj 26 361 t f f;
#X text 76 505 if a sequence of ones and zeros enter this abstraction
\, even if the last number is 1 \, [del] will output a 0 fifteen ms
after the last 1 . using a [spigot] after [del] will prevent this;
#X obj 116 195 r update_patching;
#X text 242 195 comming from [matrix_connections];
#X obj 236 359 r matrix_ramp_time;
#X obj 128 420 t b;
#X obj 128 442 15;
#X obj 236 381 t f f;
#X text 20 22 since we're receiving a 1 every time new connection is
made \, and a 0 every time a connection is being broken \, here we're
accumulating 1s when we receive a 1 and -1s when we receive a 0 so
we can keep track of the connection state of the current module. this
helps if we want to control a [switch~] so we can control the DSP of
the module \, depending on its activity;
#X connect 0 0 1 0;
#X connect 0 1 1 1;
#X connect 1 0 3 0;
#X connect 2 0 19 0;
#X connect 3 0 2 0;
#X connect 3 1 2 1;
#X connect 6 0 11 0;
#X connect 7 0 0 1;
#X connect 7 1 8 0;
#X connect 8 0 2 0;
#X connect 10 0 2 0;
#X connect 11 0 0 0;
#X connect 12 0 17 0;
#X connect 12 1 5 0;
#X connect 13 0 18 0;
#X connect 14 0 13 1;
#X connect 15 0 16 0;
#X connect 16 0 24 0;
#X connect 16 1 17 1;
#X connect 17 0 13 0;
#X connect 18 0 5 0;
#X connect 19 0 12 0;
#X connect 19 1 14 0;
#X connect 21 0 7 0;
#X connect 23 0 26 0;
#X connect 24 0 25 0;
#X connect 25 0 17 1;
#X connect 26 0 16 1;
#X connect 26 1 25 0;
#X restore 461 302 pd accumulate_connections;
#X obj 461 324 change;
#X obj 27 85 t a b;
#X obj 203 102 \$2;
#X obj 203 124 s \$1-module_ndx;
#X text 201 145 this is needed in the [led_ctl] abstractions;
#N canvas 233 293 720 481 send_activity 0;
#X obj 214 364 list fromsymbol;
#X obj 59 381 list;
#X text 140 438 this goes to [comport];
#X obj 27 294 t b b;
#X obj 59 438 s ardu_mess;
#X obj 27 244 spigot;
#X obj 27 266 t b b;
#X msg 66 222 0;
#X msg 191 227 1;
#X obj 191 155 t b f b;
#N canvas 184 559 372 236 activate_module 0;
#X obj 83 53 inlet;
#X obj 83 97 t b b;
#X msg 144 114 0;
#X obj 188 36 inlet reset;
#X msg 188 58 1;
#X obj 83 147 s module_active;
#X obj 83 75 spigot 1;
#X obj 83 125 \$2;
#X connect 0 0 6 0;
#X connect 1 0 7 0;
#X connect 1 1 2 0;
#X connect 2 0 6 1;
#X connect 3 0 4 0;
#X connect 4 0 6 1;
#X connect 6 0 1 0;
#X connect 7 0 5 0;
#X restore 284 172 pd activate_module;
#X obj 27 25 r buffer_free\$2;
#X obj 191 25 inlet activity_val;
#X obj 214 320 pack f \$2;
#X msg 214 342 symbol \$2m\$1a;
#X text 96 389 store the acctivity message and output it when the Teensy
serial buffer has been emptied;
#X text 187 247 only if a change in the activity has been made \, let
the buffer free bang go through;
#X text 283 194 let [arduino_data] know this module has had its activity
changed;
#X obj 191 133 spigot 1;
#X text 246 49 in case we want to explicitly control the activity of
a module (e.g. if we have switches wired to the mux \, and we want
to be able to read them even if no connection has been made to the
module);
#X obj 244 110 r \$1-activity;
#X connect 0 0 1 1;
#X connect 1 0 4 0;
#X connect 3 0 10 1;
#X connect 3 1 1 0;
#X connect 5 0 6 0;
#X connect 6 0 3 0;
#X connect 6 1 7 0;
#X connect 7 0 5 1;
#X connect 8 0 5 1;
#X connect 9 0 8 0;
#X connect 9 1 13 0;
#X connect 9 2 10 0;
#X connect 11 0 5 0;
#X connect 12 0 18 0;
#X connect 13 0 14 0;
#X connect 14 0 0 0;
#X connect 18 0 9 0;
#X connect 20 0 18 1;
#X restore 518 363 pd send_activity;
#X obj 461 346 t f f;
#N canvas 325 127 536 400 set_outputs 0;
#X obj 121 285 +;
#X obj 89 264 t f f;
#X obj 89 330 outlet;
#X obj 89 307 pack;
#X obj 89 174 t f b;
#X obj 89 196 until;
#X obj 89 241 f;
#X obj 119 241 + 1;
#X msg 107 217 0;
#X obj 29 21 inlet;
#X obj 29 43 route float bang;
#X msg 83 65 0;
#X obj 29 113 t b f f;
#X obj 29 157 t f f;
#X obj 29 179 +;
#X text 75 9 the first module gets a bang which is 0 summed previous
outlets;
#X text 228 90 pass sum of outlets to the next module;
#X obj 222 108 outlet outlets_sum;
#X obj 29 135 \$4;
#X connect 0 0 3 1;
#X connect 1 0 3 0;
#X connect 1 1 0 0;
#X connect 3 0 2 0;
#X connect 4 0 5 0;
#X connect 4 1 8 0;
#X connect 5 0 6 0;
#X connect 6 0 7 0;
#X connect 6 0 1 0;
#X connect 7 0 6 1;
#X connect 8 0 6 1;
#X connect 9 0 10 0;
#X connect 10 0 12 0;
#X connect 10 1 11 0;
#X connect 11 0 12 0;
#X connect 12 0 18 0;
#X connect 12 1 14 1;
#X connect 12 2 0 1;
#X connect 13 0 14 0;
#X connect 13 1 4 0;
#X connect 14 0 17 0;
#X connect 18 0 13 0;
#X restore 121 242 pd set_outputs;
#N canvas 1 82 533 376 set_inputs 0;
#X obj 121 285 +;
#X obj 89 264 t f f;
#X obj 89 332 outlet;
#X obj 89 307 pack;
#X obj 89 174 t f b;
#X obj 89 196 until;
#X obj 89 241 f;
#X obj 119 241 + 1;
#X msg 107 217 0;
#X obj 29 21 inlet;
#X obj 29 43 route float bang;
#X msg 83 65 0;
#X obj 29 113 t b f f;
#X obj 29 157 t f f;
#X obj 29 179 +;
#X obj 222 108 outlet inlets_sum;
#X text 228 90 pass sum of inlets to the next module;
#X text 75 9 the first module gets a bang which is 0 summed previous
inlets;
#X obj 29 135 \$3;
#X connect 0 0 3 1;
#X connect 1 0 3 0;
#X connect 1 1 0 0;
#X connect 3 0 2 0;
#X connect 4 0 5 0;
#X connect 4 1 8 0;
#X connect 5 0 6 0;
#X connect 6 0 7 0;
#X connect 6 0 1 0;
#X connect 7 0 6 1;
#X connect 8 0 6 1;
#X connect 9 0 10 0;
#X connect 10 0 12 0;
#X connect 10 1 11 0;
#X connect 11 0 12 0;
#X connect 12 0 18 0;
#X connect 12 1 14 1;
#X connect 12 2 0 1;
#X connect 13 0 14 0;
#X connect 13 1 4 0;
#X connect 14 0 15 0;
#X connect 18 0 13 0;
#X restore 27 308 pd set_inputs;
#N canvas 884 217 731 304 \$0-inlet_connections 0;
#X obj 150 49 unpack;
#N canvas 138 106 367 251 send_further 0;
#X obj 140 63 loadbang;
#X obj 140 107 + 1;
#X obj 95 146 s;
#X obj 95 63 inlet;
#X obj 140 85 \$2;
#X msg 140 129 symbol inlet_states\$1;
#X connect 0 0 4 0;
#X connect 1 0 5 0;
#X connect 3 0 2 0;
#X connect 4 0 1 0;
#X connect 5 0 2 1;
#X restore 31 197 pd send_further;
#X obj 31 153 spigot;
#X obj 31 175 t l b;
#X msg 87 136 0;
#X obj 31 32 t l l;
#X obj 31 10 r inlet_states\$2;
#X obj 150 94 -;
#X obj 168 72 inlet;
#X obj 150 116 pack;
#X obj 150 260 outlet;
#X msg 70 113 1;
#X connect 0 0 7 0;
#X connect 0 1 9 1;
#X connect 2 0 3 0;
#X connect 3 0 1 0;
#X connect 3 1 4 0;
#X connect 4 0 2 1;
#X connect 5 0 2 0;
#X connect 5 1 0 0;
#X connect 6 0 5 0;
#X connect 7 0 9 0;
#X connect 8 0 7 1;
#X connect 11 0 2 1;
#X restore 329 226 pd \$0-inlet_connections;
#N canvas 27 369 674 310 \$0-outlet_connections 0;
#X obj 150 49 unpack;
#N canvas 569 325 367 251 send_further 0;
#X obj 140 63 loadbang;
#X obj 140 107 + 1;
#X msg 140 129 symbol outlet_states\$1;
#X obj 95 146 s;
#X obj 95 63 inlet;
#X obj 140 85 \$2;
#X connect 0 0 5 0;
#X connect 1 0 2 0;
#X connect 2 0 3 1;
#X connect 4 0 3 0;
#X connect 5 0 1 0;
#X restore 31 174 pd send_further;
#X obj 31 130 spigot;
#X obj 31 152 t l b;
#X msg 87 113 0;
#X obj 31 10 r outlet_states\$2;
#X obj 31 32 t l l;
#X obj 150 94 -;
#X obj 168 72 inlet;
#X obj 150 116 pack;
#X obj 150 240 outlet;
#X msg 70 90 1;
#X connect 0 0 7 0;
#X connect 0 1 9 1;
#X connect 2 0 3 0;
#X connect 3 0 1 0;
#X connect 3 1 4 0;
#X connect 4 0 2 1;
#X connect 5 0 6 0;
#X connect 6 0 2 0;
#X connect 6 1 0 0;
#X connect 7 0 9 0;
#X connect 8 0 7 1;
#X connect 11 0 2 1;
#X restore 461 196 pd \$0-outlet_connections;
#N canvas 1 82 450 300 \$0-route_inputs 0;
#X obj 100 41 inlet;
#X restore 27 332 pd \$0-route_inputs;
#N canvas 1 82 483 299 \$0-route_outputs 0;
#X obj 100 41 inlet;
#X restore 121 265 pd \$0-route_outputs;
#N canvas 1386 159 319 237 dynamic_patching_guts 0;
#X obj 38 53 loadbang;
#X obj 38 75 t b b b b;
#N canvas 396 82 450 300 inlet_connections 0;
#N canvas 766 287 450 300 create_route 0;
#X obj 104 82 until;
#X obj 104 127 f;
#X obj 134 127 + 1;
#X msg 122 105 1;
#X obj 104 149 t f f;
#X msg 160 166 add2 \$1;
#X obj 104 171 sel;
#X msg 160 210 obj 150 150 route;
#X obj 86 60 t f f b f b;
#X obj 86 35 inlet;
#X obj 86 251 outlet;
#X msg 192 77 set obj 150 150 route;
#X obj 160 232 s pd-\$0-inlet_connections;
#X connect 0 0 1 0;
#X connect 1 0 2 0;
#X connect 1 0 4 0;
#X connect 2 0 1 1;
#X connect 3 0 1 1;
#X connect 4 0 6 0;
#X connect 4 1 5 0;
#X connect 5 0 7 0;
#X connect 6 0 7 0;
#X connect 7 0 12 0;
#X connect 8 0 10 0;
#X connect 8 1 0 0;
#X connect 8 2 3 0;
#X connect 8 3 6 1;
#X connect 8 4 11 0;
#X connect 9 0 8 0;
#X connect 11 0 7 0;
#X restore 86 62 pd create_route;
#N canvas 389 218 388 441 create_triggers_and_sends 0;
#X obj 77 78 until;
#X obj 77 123 f;
#X obj 107 123 + 1;
#X msg 95 101 0;
#X obj 54 31 inlet;
#X obj 54 53 t f f b;
#X obj 127 206 t f f;
#X obj 54 395 outlet;
#X obj 77 145 t f f;
#X obj 127 184 + 150;
#X obj 114 235 + 32;
#X obj 127 162 * 100;
#X msg 159 228 obj \$1 180 t f f;
#X msg 77 325 obj \$2 210 s \$3-inlet\$1;
#X obj 77 302 pack f f \$1;
#X obj 159 371 s pd-\$0-inlet_connections;
#X connect 0 0 1 0;
#X connect 1 0 2 0;
#X connect 1 0 8 0;
#X connect 2 0 1 1;
#X connect 3 0 1 1;
#X connect 4 0 5 0;
#X connect 5 0 7 0;
#X connect 5 1 0 0;
#X connect 5 2 3 0;
#X connect 6 0 10 0;
#X connect 6 1 12 0;
#X connect 8 0 14 0;
#X connect 8 1 11 0;
#X connect 9 0 6 0;
#X connect 10 0 14 1;
#X connect 11 0 9 0;
#X connect 12 0 15 0;
#X connect 13 0 15 0;
#X connect 14 0 13 0;
#X restore 86 84 pd create_triggers_and_sends;
#N canvas 242 352 610 538 make_connections 0;
#X obj 45 95 + 1;
#X obj 45 117 until;
#X obj 45 161 f;
#X obj 75 161 + 1;
#X msg 63 139 0;
#X obj 45 185 moses;
#X text 157 70 connect [pack] to [route];
#X obj 45 47 inlet;
#X text 75 363 connect [route] to [t f f];
#X obj 45 247 t f f;
#X obj 45 344 pack;
#X obj 77 269 * 2;
#X msg 371 316 connect \$1 1 \$2 0;
#X obj 45 207 t f f;
#X obj 371 246 t f f;
#X obj 371 294 pack;
#X obj 371 224 * 2;
#X text 407 298 connect [t f f] to [s ];
#X obj 77 313 t f f;
#X text 128 313 connect [t f f] to [outlet];
#X obj 45 70 t f b f b;
#X text 136 182 connect [route] to [1 (;
#X msg 136 202 connect 12 \$1 11 0;
#X msg 125 330 connect \$1 0 10 0;
#X msg 45 380 connect 12 \$1 \$2 0;
#X obj 77 291 + 13;
#X obj 371 268 + 13;
#X obj 409 268 + 14;
#X msg 159 87 connect 9 0 12 0;
#X obj 371 467 s pd-\$0-inlet_connections;
#X connect 0 0 1 0;
#X connect 1 0 2 0;
#X connect 2 0 3 0;
#X connect 2 0 5 0;
#X connect 3 0 2 1;
#X connect 4 0 2 1;
#X connect 5 0 13 0;
#X connect 5 1 22 0;
#X connect 7 0 20 0;
#X connect 9 0 10 0;
#X connect 9 1 11 0;
#X connect 10 0 24 0;
#X connect 11 0 25 0;
#X connect 12 0 29 0;
#X connect 13 0 9 0;
#X connect 13 1 16 0;
#X connect 14 0 26 0;
#X connect 14 1 27 0;
#X connect 15 0 12 0;
#X connect 16 0 14 0;
#X connect 18 0 10 1;
#X connect 18 1 23 0;
#X connect 20 0 0 0;
#X connect 20 1 4 0;
#X connect 20 2 5 1;
#X connect 20 3 28 0;
#X connect 22 0 29 0;
#X connect 23 0 29 0;
#X connect 24 0 29 0;
#X connect 25 0 18 0;
#X connect 26 0 15 0;
#X connect 27 0 15 1;
#X connect 28 0 29 0;
#X restore 86 107 pd make_connections;
#X obj 86 17 inlet;
#X obj 86 39 \$3;
#X connect 0 0 1 0;
#X connect 1 0 2 0;
#X connect 3 0 4 0;
#X connect 4 0 0 0;
#X restore 98 98 pd inlet_connections;
#N canvas 1 82 374 204 outlet_connections 0;
#N canvas 770 291 450 300 create_route 0;
#X obj 104 82 until;
#X obj 104 127 f;
#X obj 134 127 + 1;
#X msg 122 105 1;
#X obj 104 149 t f f;
#X msg 160 166 add2 \$1;
#X obj 104 171 sel;
#X msg 160 210 obj 150 150 route;
#X obj 86 60 t f f b f b;
#X obj 86 35 inlet;
#X obj 86 251 outlet;
#X msg 192 77 set obj 150 150 route;
#X obj 160 232 s pd-\$0-outlet_connections;
#X connect 0 0 1 0;
#X connect 1 0 2 0;
#X connect 1 0 4 0;
#X connect 2 0 1 1;
#X connect 3 0 1 1;
#X connect 4 0 6 0;
#X connect 4 1 5 0;
#X connect 5 0 7 0;
#X connect 6 0 7 0;
#X connect 7 0 12 0;
#X connect 8 0 10 0;
#X connect 8 1 0 0;
#X connect 8 2 3 0;
#X connect 8 3 6 1;
#X connect 8 4 11 0;
#X connect 9 0 8 0;
#X connect 11 0 7 0;
#X restore 86 62 pd create_route;
#N canvas 100 91 388 441 create_triggers_and_sends 0;
#X obj 87 78 until;
#X obj 87 123 f;
#X obj 117 123 + 1;
#X msg 105 101 0;
#X obj 64 31 inlet;
#X obj 64 53 t f f b;
#X obj 137 206 t f f;
#X obj 64 395 outlet;
#X obj 87 145 t f f;
#X obj 137 184 + 150;
#X obj 124 236 + 32;
#X obj 137 162 * 110;
#X msg 169 228 obj \$1 180 t f f;
#X msg 87 324 obj \$2 210 s \$3-outlet\$1;
#X obj 169 371 s pd-\$0-outlet_connections;
#X obj 87 302 pack f f \$1;
#X connect 0 0 1 0;
#X connect 1 0 2 0;
#X connect 1 0 8 0;
#X connect 2 0 1 1;
#X connect 3 0 1 1;
#X connect 4 0 5 0;
#X connect 5 0 7 0;
#X connect 5 1 0 0;
#X connect 5 2 3 0;
#X connect 6 0 10 0;
#X connect 6 1 12 0;
#X connect 8 0 15 0;
#X connect 8 1 11 0;
#X connect 9 0 6 0;
#X connect 10 0 15 1;
#X connect 11 0 9 0;
#X connect 12 0 14 0;
#X connect 13 0 14 0;
#X connect 15 0 13 0;
#X restore 86 84 pd create_triggers_and_sends;
#N canvas 1029 347 610 538 make_connections 0;
#X obj 45 95 + 1;
#X obj 45 117 until;
#X obj 45 161 f;
#X obj 75 161 + 1;
#X msg 63 139 0;
#X obj 45 185 moses;
#X text 157 70 connect [pack] to [route];
#X obj 45 47 inlet;
#X text 75 363 connect [route] to [t f f];
#X obj 45 247 t f f;
#X obj 45 343 pack;
#X obj 77 269 * 2;
#X msg 371 316 connect \$1 1 \$2 0;
#X obj 45 207 t f f;
#X obj 371 246 t f f;
#X obj 371 294 pack;
#X obj 371 224 * 2;
#X text 407 298 connect [t f f] to [s ];
#X obj 77 313 t f f;
#X text 128 313 connect [t f f] to [outlet];
#X obj 45 70 t f b f b;
#X text 136 182 connect [route] to [1 (;
#X msg 159 87 connect 9 0 12 0;
#X msg 136 202 connect 12 \$1 11 0;
#X msg 125 330 connect \$1 0 10 0;
#X msg 45 380 connect 12 \$1 \$2 0;
#X obj 77 291 + 13;
#X obj 371 268 + 13;
#X obj 407 268 + 14;
#X obj 371 467 s pd-\$0-outlet_connections;
#X connect 0 0 1 0;
#X connect 1 0 2 0;
#X connect 2 0 3 0;
#X connect 2 0 5 0;
#X connect 3 0 2 1;
#X connect 4 0 2 1;
#X connect 5 0 13 0;
#X connect 5 1 23 0;
#X connect 7 0 20 0;
#X connect 9 0 10 0;
#X connect 9 1 11 0;
#X connect 10 0 25 0;
#X connect 11 0 26 0;
#X connect 12 0 29 0;
#X connect 13 0 9 0;
#X connect 13 1 16 0;
#X connect 14 0 27 0;
#X connect 14 1 28 0;
#X connect 15 0 12 0;
#X connect 16 0 14 0;
#X connect 18 0 10 1;
#X connect 18 1 24 0;
#X connect 20 0 0 0;
#X connect 20 1 4 0;
#X connect 20 2 5 1;
#X connect 20 3 22 0;
#X connect 22 0 29 0;
#X connect 23 0 29 0;
#X connect 24 0 29 0;
#X connect 25 0 29 0;
#X connect 26 0 18 0;
#X connect 27 0 15 0;
#X connect 28 0 15 1;
#X restore 86 107 pd make_connections;
#X obj 86 16 inlet;
#X obj 86 38 \$4;
#X connect 0 0 1 0;
#X connect 1 0 2 0;
#X connect 3 0 4 0;
#X connect 4 0 0 0;
#X restore 78 122 pd outlet_connections;
#N canvas 180 340 454 651 route_inputs 0;
#X obj 54 114 until;
#X obj 54 158 f;
#X obj 84 158 + 1;
#X msg 72 135 0;
#X obj 54 92 t f b f;
#X obj 100 114 - 1;
#X obj 54 180 t f f f;
#X obj 54 232 sel;
#X msg 186 197 add2 \$1;
#X msg 124 79 set obj 100 100 route;
#X msg 186 220 obj 100 100 route;
#X obj 89 205 t f f;
#X obj 89 275 pack f f \$1;
#X obj 126 250 + 100;
#X msg 89 297 obj \$2 140 s \$3-input\$1;
#X obj 31 62 t f f b;
#X obj 31 369 t f b;
#X obj 31 391 until;
#X obj 31 435 f;
#X obj 61 435 + 1;
#X msg 49 412 0;
#X obj 31 457 t f f;
#X obj 126 228 * 100;
#X obj 31 40 \$3;
#X obj 31 18 inlet;
#X obj 228 600 s pd-\$0-route_inputs;
#X obj 89 319 s pd-\$0-route_inputs;
#X obj 31 347 t f f;
#X obj 196 364 + 1;
#X obj 196 386 t f f;
#X obj 31 507 pack f f f;
#X msg 31 529 connect \$3 \$1 \$2 0;
#X obj 64 480 + 1;
#X msg 228 409 connect 0 0 \$1 0;
#X connect 0 0 1 0;
#X connect 1 0 2 0;
#X connect 1 0 6 0;
#X connect 2 0 1 1;
#X connect 3 0 1 1;
#X connect 4 0 0 0;
#X connect 4 1 3 0;
#X connect 4 2 5 0;
#X connect 5 0 7 1;
#X connect 6 0 7 0;
#X connect 6 1 11 0;
#X connect 6 2 8 0;
#X connect 7 0 10 0;
#X connect 8 0 10 0;
#X connect 9 0 10 0;
#X connect 10 0 26 0;
#X connect 11 0 12 0;
#X connect 11 1 22 0;
#X connect 12 0 14 0;
#X connect 13 0 12 1;
#X connect 14 0 26 0;
#X connect 15 0 27 0;
#X connect 15 1 4 0;
#X connect 15 2 9 0;
#X connect 16 0 17 0;
#X connect 16 1 20 0;
#X connect 17 0 18 0;
#X connect 18 0 19 0;
#X connect 18 0 21 0;
#X connect 19 0 18 1;
#X connect 20 0 18 1;
#X connect 21 0 30 0;
#X connect 21 1 32 0;
#X connect 22 0 13 0;
#X connect 23 0 15 0;
#X connect 24 0 23 0;
#X connect 27 0 16 0;
#X connect 27 1 28 0;
#X connect 28 0 29 0;
#X connect 29 0 30 2;
#X connect 29 1 33 0;
#X connect 30 0 31 0;
#X connect 31 0 25 0;
#X connect 32 0 30 1;
#X connect 33 0 25 0;
#X restore 58 146 pd route_inputs;
#N canvas 636 256 430 655 route_outputs 0;
#X obj 54 114 until;
#X obj 54 158 f;
#X obj 84 158 + 1;
#X msg 72 135 0;
#X obj 54 92 t f b f;
#X obj 100 114 - 1;
#X obj 54 180 t f f f;
#X obj 54 232 sel;
#X msg 186 197 add2 \$1;
#X msg 124 79 set obj 100 100 route;
#X msg 186 220 obj 100 100 route;
#X obj 89 205 t f f;
#X obj 89 275 pack f f \$1;
#X obj 126 250 + 100;
#X obj 31 62 t f f b;
#X obj 31 369 t f b;
#X obj 31 391 until;
#X obj 31 435 f;
#X obj 61 435 + 1;
#X msg 49 412 0;
#X obj 31 457 t f f;
#X msg 89 297 obj \$2 140 s \$3-output\$1;
#X obj 126 228 * 110;
#X obj 31 40 \$4;
#X obj 228 600 s pd-\$0-route_outputs;
#X obj 31 18 inlet;
#X obj 89 319 s pd-\$0-route_outputs;
#X obj 31 347 t f f;
#X obj 196 364 + 1;
#X obj 196 386 t f f;
#X msg 228 409 connect 0 0 \$1 0;
#X obj 31 506 pack f f f;
#X msg 31 528 connect \$3 \$1 \$2 0;
#X obj 64 482 + 1;
#X connect 0 0 1 0;
#X connect 1 0 2 0;
#X connect 1 0 6 0;
#X connect 2 0 1 1;
#X connect 3 0 1 1;
#X connect 4 0 0 0;
#X connect 4 1 3 0;
#X connect 4 2 5 0;
#X connect 5 0 7 1;
#X connect 6 0 7 0;
#X connect 6 1 11 0;
#X connect 6 2 8 0;
#X connect 7 0 10 0;
#X connect 8 0 10 0;
#X connect 9 0 10 0;
#X connect 10 0 26 0;
#X connect 11 0 12 0;
#X connect 11 1 22 0;
#X connect 12 0 21 0;
#X connect 13 0 12 1;
#X connect 14 0 27 0;
#X connect 14 1 4 0;
#X connect 14 2 9 0;
#X connect 15 0 16 0;
#X connect 15 1 19 0;
#X connect 16 0 17 0;
#X connect 17 0 18 0;
#X connect 17 0 20 0;
#X connect 18 0 17 1;
#X connect 19 0 17 1;
#X connect 20 0 31 0;
#X connect 20 1 33 0;
#X connect 21 0 26 0;
#X connect 22 0 13 0;
#X connect 23 0 14 0;
#X connect 25 0 23 0;
#X connect 27 0 15 0;
#X connect 27 1 28 0;
#X connect 28 0 29 0;
#X connect 29 0 31 2;
#X connect 29 1 30 0;
#X connect 30 0 24 0;
#X connect 31 0 32 0;
#X connect 32 0 24 0;
#X connect 33 0 31 1;
#X restore 38 171 pd route_outputs;
#X connect 0 0 1 0;
#X connect 1 0 5 0;
#X connect 1 1 4 0;
#X connect 1 2 3 0;
#X connect 1 3 2 0;
#X restore 27 27 pd dynamic_patching_guts;
#X connect 0 0 1 0;
#X connect 0 1 2 0;
#X connect 1 0 18 0;
#X connect 1 1 19 0;
#X connect 2 0 17 0;
#X connect 2 1 20 0;
#X connect 3 0 5 0;
#X connect 6 0 11 0;
#X connect 7 0 0 0;
#X connect 8 0 7 0;
#X connect 8 1 0 0;
#X connect 9 0 10 0;
#X connect 10 0 16 0;
#X connect 11 0 8 0;
#X connect 11 1 12 0;
#X connect 12 0 13 0;
#X connect 16 0 4 0;
#X connect 16 1 15 0;
#X connect 17 0 22 0;
#X connect 17 1 3 1;
#X connect 18 0 21 0;
#X connect 18 1 3 0;
#X connect 19 0 9 0;
#X connect 20 0 9 0;
