#N canvas 536 105 457 326 10;
#X obj 94 32 loadbang;
#X obj 94 77 pack s \$1;
#X obj 94 54 canvasdollarzero 1;
#X obj 94 143 oreceive;
#X msg 94 121 symbol \$1-output\$2;
#X obj 29 164 inlet~;
#X obj 94 165 t f f;
#X msg 94 187 set output\$1;
#X obj 29 254 tabsend~;
#X obj 94 99 t l l;
#N canvas 833 374 842 591 handle_metadata 0;
#X obj 53 411 oreceive;
#X obj 53 458 t b f;
#X msg 80 530 symbol get_metadata\$1;
#X obj 53 547 s;
#X obj 53 482 list;
#X msg 134 134 symbol \$1-metalink\$2;
#X obj 134 156 oreceive;
#X text 138 111 this will receive metadata from a linked input;
#X msg 53 389 symbol give_metadata\$1;
#X obj 53 67 inlet;
#X obj 134 67 inlet;
#X obj 53 89 t f f;
#X obj 576 128 oreceive;
#X obj 603 195 list;
#X obj 603 172 t b f;
#X obj 603 237 s;
#X msg 630 220 symbol clear_metadata\$1;
#X msg 576 106 symbol erase_metadata\$1;
#X obj 53 435 t f f;
#X obj 202 442 inlet metadata;
#N canvas 284 178 612 381 linked_metadata 0;
#X obj 319 232 inlet;
#X obj 39 78 inlet clear;
#X obj 319 256 list-abs/list-extend;
#X obj 39 104 list-abs/list-find;
#X obj 156 231 list-abs/list-idx;
#X obj 39 148 + 1;
#X obj 156 253 + 2;
#X text 175 199 erase both the output nr and the number of metadata
along with the actual metadata;
#X obj 39 170 t b f;
#X obj 39 192 list;
#X obj 358 303 outlet;
#X text 39 5 this subpatch only takes care of deleting a disconnecting
linked input and setting the rest of the list (if there's anything
left) to the right inlet of [list prepend] in the main abstraction
window;
#X obj 39 126 t f f;
#X obj 39 298 list-abs/list-delete;
#X obj 319 279 t a a a;
#X obj 39 321 t a a;
#X obj 39 214 t a a;
#X connect 0 0 2 0;
#X connect 1 0 3 0;
#X connect 2 0 14 0;
#X connect 3 0 12 0;
#X connect 4 0 6 0;
#X connect 5 0 8 0;
#X connect 6 0 13 2;
#X connect 8 0 9 0;
#X connect 8 1 4 1;
#X connect 9 0 16 0;
#X connect 12 0 5 0;
#X connect 12 1 13 1;
#X connect 13 0 15 0;
#X connect 14 0 9 1;
#X connect 14 1 3 1;
#X connect 14 2 10 0;
#X connect 15 0 14 0;
#X connect 15 1 2 1;
#X connect 16 0 13 0;
#X connect 16 1 4 0;
#X restore 270 279 pd linked_metadata;
#N canvas 371 315 566 579 clear_linked_metadata 0;
#X obj 203 336 inlet;
#X obj 39 78 inlet clear;
#X obj 66 424 outlet;
#X obj 39 104 list-abs/list-find;
#X obj 66 237 list-abs/list-idx;
#X obj 39 148 + 1;
#X obj 66 305 pack;
#X obj 66 259 + 2;
#X text 114 260 erase both the output nr and the number of metadata
along with the actual metadata;
#X obj 39 170 t b f;
#X obj 39 192 list;
#N canvas 1 82 337 352 create_clear_linked_list 0;
#X obj 86 120 list;
#X obj 86 96 until;
#X obj 86 142 list split 2;
#X obj 86 188 list split 1;
#X obj 86 210 list append clear;
#X obj 86 17 inlet;
#X obj 65 301 outlet;
#X obj 86 39 t b l;
#X obj 134 56 list split 2;
#X obj 86 232 list-abs/list-extend;
#X obj 203 208 inlet;
#X obj 65 278 list prepend;
#X obj 65 255 list;
#X obj 155 165 t b b;
#X connect 0 0 2 0;
#X connect 1 0 0 0;
#X connect 2 0 3 0;
#X connect 2 1 0 1;
#X connect 2 2 13 0;
#X connect 3 0 4 0;
#X connect 4 0 9 0;
#X connect 5 0 7 0;
#X connect 7 0 1 0;
#X connect 7 1 8 0;
#X connect 8 0 11 1;
#X connect 8 1 0 1;
#X connect 9 0 12 1;
#X connect 10 0 9 1;
#X connect 11 0 6 0;
#X connect 12 0 11 0;
#X connect 13 0 12 0;
#X connect 13 1 1 1;
#X restore 203 359 pd create_clear_linked_list;
#X text 39 11 the linked data that are cleared need to both be routed
to the connecting input and keep track of the deleted output to the
linked input of this instance;
#X obj 39 454 list-abs/list-delete 0 1;
#X obj 39 126 t f f f;
#X obj 66 281 t f f;
#X obj 254 407 outlet;
#X obj 203 384 t a a a a;
#X obj 39 214 t a a;
#X obj 39 476 t a a;
#N canvas 845 256 450 300 get_part_of_list 0;
#X obj 71 48 inlet;
#X obj 71 70 t b l;
#X obj 71 122 list;
#X obj 71 144 list split;
#X obj 99 166 list split;
#X obj 128 87 unpack;
#X obj 213 105 inlet list;
#X obj 99 188 outlet;
#X connect 0 0 1 0;
#X connect 1 0 2 0;
#X connect 1 1 5 0;
#X connect 2 0 3 0;
#X connect 3 1 4 0;
#X connect 4 0 7 0;
#X connect 5 0 3 1;
#X connect 5 1 4 1;
#X connect 6 0 2 1;
#X restore 66 401 pd get_part_of_list;
#X msg 66 379 \$2 \$1;
#X connect 0 0 11 0;
#X connect 1 0 3 0;
#X connect 3 0 14 0;
#X connect 4 0 7 0;
#X connect 5 0 9 0;
#X connect 6 0 21 0;
#X connect 7 0 15 0;
#X connect 9 0 10 0;
#X connect 9 1 4 1;
#X connect 10 0 18 0;
#X connect 11 0 17 0;
#X connect 13 0 19 0;
#X connect 14 0 5 0;
#X connect 14 1 6 1;
#X connect 14 2 13 1;
#X connect 15 0 6 0;
#X connect 15 1 13 2;
#X connect 17 0 20 1;
#X connect 17 1 10 1;
#X connect 17 2 3 1;
#X connect 17 3 16 0;
#X connect 18 0 13 0;
#X connect 18 1 4 0;
#X connect 19 0 17 0;
#X connect 19 1 11 1;
#X connect 20 0 2 0;
#X connect 21 0 20 0;
#X restore 260 387 pd clear_linked_metadata;
#X obj 134 240 spigot;
#X obj 134 262 t f f;
#X msg 227 223 1;
#X text 183 245 go through the list clearing process only in case this
output is linked to an input;
#N canvas 1293 529 626 383 connected_inputs 0;
#X obj 234 134 list-abs/list-extend;
#X obj 51 173 list;
#X text 43 12 keep track of the connecting inputs in case of linked
metadata \, so we can clear it when the linked input in this module
gets disconnected;
#X obj 51 196 list-abs/list-drip;
#X obj 51 348 s;
#X obj 51 218 t b f;
#X obj 51 240 list;
#X obj 234 87 inlet connect;
#X obj 396 87 inlet disconnect;
#X obj 396 210 list-abs/list-find;
#X obj 396 280 list-abs/list-delete 0 1;
#X obj 396 256 list;
#X obj 396 232 t b f;
#X obj 51 87 inlet clear;
#X obj 158 87 inlet get;
#X obj 123 220 sel 0 1;
#X msg 123 272 symbol clear;
#X msg 142 243 symbol get;
#X obj 78 305 pack f s;
#X msg 123 126 0;
#X msg 185 131 1;
#X msg 78 331 symbol \$2_metadata\$1;
#X obj 396 302 t a a;
#X obj 234 156 t a a a;
#X obj 51 109 t a b;
#X obj 158 109 t a b;
#X obj 51 149 t b a;
#X connect 0 0 23 0;
#X connect 1 0 3 0;
#X connect 3 0 5 0;
#X connect 5 0 6 0;
#X connect 5 1 18 0;
#X connect 6 0 4 0;
#X connect 7 0 0 0;
#X connect 8 0 9 0;
#X connect 9 0 12 0;
#X connect 10 0 22 0;
#X connect 11 0 10 0;
#X connect 12 0 11 0;
#X connect 12 1 10 1;
#X connect 13 0 24 0;
#X connect 14 0 25 0;
#X connect 15 0 16 0;
#X connect 15 1 17 0;
#X connect 16 0 18 1;
#X connect 17 0 18 1;
#X connect 18 0 21 0;
#X connect 19 0 15 0;
#X connect 20 0 15 0;
#X connect 21 0 4 1;
#X connect 22 0 23 0;
#X connect 22 1 0 1;
#X connect 23 0 1 1;
#X connect 23 1 11 1;
#X connect 23 2 9 1;
#X connect 24 0 26 0;
#X connect 24 1 19 0;
#X connect 25 0 26 0;
#X connect 25 1 20 0;
#X connect 26 0 1 0;
#X connect 26 1 6 1;
#X restore 260 409 pd connected_inputs;
#X obj 53 504 list prepend;
#X text 319 301 this might create a bit of overhead which might cause
the linked metadata to be sent more than once \, but this way we can
send the linked metadata both when the linked output is connected after
it receives the linked metadata and when it is connected before that
;
#X obj 576 150 t f f;
#X obj 134 178 route disconnect;
#N canvas 306 154 729 429 own_metadata 0;
#X obj 78 152 list-abs/list-extend;
#X obj 39 94 list-abs/list-drip;
#X obj 78 312 t l l;
#N canvas 308 388 393 327 create_clear_list 0;
#X obj 146 129 list;
#X obj 146 66 until;
#X obj 146 151 list split 2;
#X obj 146 173 list split 1;
#X obj 146 195 list append clear;
#X obj 146 217 list-abs/list-extend;
#X obj 24 15 inlet;
#X obj 146 15 inlet;
#X obj 146 260 outlet;
#X obj 24 37 list split 2;
#X obj 146 239 list prepend;
#X obj 146 37 t b b;
#X connect 0 0 2 0;
#X connect 1 0 0 0;
#X connect 2 0 3 0;
#X connect 2 1 0 1;
#X connect 2 2 1 1;
#X connect 3 0 4 0;
#X connect 4 0 5 0;
#X connect 5 0 10 0;
#X connect 6 0 9 0;
#X connect 7 0 11 0;
#X connect 9 0 10 1;
#X connect 9 1 0 1;
#X connect 10 0 8 0;
#X connect 11 0 1 0;
#X connect 11 1 5 1;
#X restore 105 334 pd create_clear_list;
#X obj 78 174 t l l;
#X obj 147 211 list length;
#X obj 78 289 list prepend;
#X text 172 287 include output nr and nr of metadata in the list so
we can easily delete parts of lists from linked outputs;
#X obj 39 128 sel : |;
#X obj 195 111 t b b;
#X obj 147 233 list prepend \$1;
#X text 273 233 <- this argument is actually replaced when this abstraction
is placed in the main patch \, but it's here to prevent Pd from crashing
when we open the abstraction by itself;
#X obj 60 42 inlet;
#X obj 78 381 outlet;
#X obj 105 356 outlet;
#X text 94 130 exclude colon and slash from resulting list;
#X obj 207 165 inlet;
#X obj 39 67 list;
#X obj 207 187 t b f;
#X text 255 188 wait first for the outlet number to come in and then
store the metadata list;
#X connect 0 0 4 0;
#X connect 1 0 8 0;
#X connect 1 1 9 0;
#X connect 2 0 13 0;
#X connect 2 1 3 0;
#X connect 3 0 14 0;
#X connect 4 0 6 0;
#X connect 4 1 5 0;
#X connect 5 0 10 0;
#X connect 6 0 2 0;
#X connect 8 2 0 0;
#X connect 9 0 0 1;
#X connect 9 1 3 1;
#X connect 10 0 6 1;
#X connect 12 0 17 1;
#X connect 16 0 18 0;
#X connect 17 0 1 0;
#X connect 18 0 17 0;
#X connect 18 1 10 1;
#X restore 202 465 pd own_metadata;
#X obj 53 324 t f f;
#X obj 270 301 t a a;
#X text 62 18 use [t a] instead of [t l] because when a list is emptied
it outputs a bang;
#X obj 375 218 t a a;
#X obj 227 201 t b a;
#X obj 443 482 t b a;
#X obj 401 513 list append;
#X connect 0 0 18 0;
#X connect 1 0 4 0;
#X connect 1 1 2 0;
#X connect 2 0 3 1;
#X connect 4 0 27 0;
#X connect 5 0 6 0;
#X connect 6 0 30 0;
#X connect 8 0 0 0;
#X connect 9 0 11 0;
#X connect 10 0 5 0;
#X connect 11 0 32 0;
#X connect 11 1 17 0;
#X connect 12 0 29 0;
#X connect 13 0 15 0;
#X connect 14 0 13 0;
#X connect 14 1 16 0;
#X connect 16 0 15 1;
#X connect 17 0 12 0;
#X connect 18 0 1 0;
#X connect 18 1 26 2;
#X connect 19 0 31 0;
#X connect 20 0 33 0;
#X connect 21 0 26 0;
#X connect 21 1 38 0;
#X connect 22 0 23 0;
#X connect 23 0 21 0;
#X connect 23 1 20 0;
#X connect 24 0 22 1;
#X connect 27 0 3 0;
#X connect 29 0 26 3;
#X connect 29 1 14 0;
#X connect 30 0 22 0;
#X connect 30 1 36 0;
#X connect 31 0 4 1;
#X connect 31 1 37 0;
#X connect 32 0 8 0;
#X connect 32 1 31 1;
#X connect 33 0 27 1;
#X connect 33 1 26 1;
#X connect 35 0 20 1;
#X connect 35 1 21 1;
#X connect 36 0 24 0;
#X connect 36 1 35 0;
#X connect 37 0 38 0;
#X connect 37 1 38 1;
#X connect 38 0 13 1;
#X restore 192 182 pd handle_metadata;
#X obj 297 158 inlet metadata;
#X connect 0 0 2 0;
#X connect 1 0 9 0;
#X connect 2 0 1 0;
#X connect 3 0 6 0;
#X connect 4 0 3 0;
#X connect 5 0 8 0;
#X connect 6 0 7 0;
#X connect 6 1 10 0;
#X connect 7 0 8 0;
#X connect 9 0 4 0;
#X connect 9 1 10 1;
#X connect 11 0 10 2;
