#N canvas 1 82 329 256 10;
#X obj 94 32 loadbang;
#X obj 94 76 pack s \$1;
#X obj 94 54 canvasdollarzero 1;
#X obj 94 140 oreceive;
#X msg 94 97 symbol \$1-output\$2;
#X obj 29 190 throw~;
#X obj 29 140 inlet~;
#X connect 0 0 2 0;
#X connect 1 0 4 0;
#X connect 2 0 1 0;
#X connect 3 0 5 0;
#X connect 4 0 3 0;
#X connect 6 0 5 0;
