#N canvas 1090 285 556 463 10;
#X obj 53 104 inlet~;
#X obj 53 259 *~;
#X obj 53 366 outlet~;
#X obj 69 203 *~;
#X obj 150 243 *~;
#X obj 53 344 *~;
#X obj 354 127 switch~;
#X obj 150 221 inlet~ cv;
#X obj 354 105 inlet main_sig_state;
#X obj 93 283 r \$1-switch\$2;
#X obj 69 136 r \$1-amp\$2;
#X text 47 28 arguments are \$0 and main signal input number;
#X obj 221 104 inlet~ cv_state;
#X obj 221 162 *~ -1;
#X obj 221 187 +~ 1;
#X obj 93 328 line~;
#X obj 93 305 pack f 20;
#X obj 69 181 line~;
#X obj 69 158 pack f 20;
#X connect 0 0 1 0;
#X connect 1 0 5 0;
#X connect 3 0 1 1;
#X connect 4 0 1 1;
#X connect 5 0 2 0;
#X connect 7 0 4 0;
#X connect 8 0 6 0;
#X connect 9 0 16 0;
#X connect 10 0 18 0;
#X connect 12 0 4 1;
#X connect 12 0 13 0;
#X connect 13 0 14 0;
#X connect 14 0 3 1;
#X connect 15 0 5 1;
#X connect 16 0 15 0;
#X connect 17 0 3 0;
#X connect 18 0 17 0;
