#N canvas 351 169 556 366 10;
#X obj 53 104 inlet~;
#X obj 53 236 *~;
#X obj 53 320 outlet~;
#X obj 72 158 smooth~;
#X obj 72 180 *~;
#X obj 150 220 *~;
#X obj 221 127 smooth~;
#X obj 221 164 invert~ 1;
#X obj 53 298 *~;
#X obj 93 282 smooth~;
#X obj 354 127 switch~;
#X obj 150 198 inlet~ cv;
#X obj 221 104 inlet cv_state;
#X obj 354 105 inlet main_sig_state;
#X obj 93 260 r \$1-switch\$2;
#X obj 72 136 r \$1-amp\$2;
#X text 47 28 arguments are \$0 and main signal input number;
#X connect 0 0 1 0;
#X connect 1 0 8 0;
#X connect 3 0 4 0;
#X connect 4 0 1 1;
#X connect 5 0 1 1;
#X connect 6 0 7 0;
#X connect 6 0 5 1;
#X connect 7 0 4 1;
#X connect 8 0 2 0;
#X connect 9 0 8 1;
#X connect 11 0 5 0;
#X connect 12 0 6 0;
#X connect 13 0 10 0;
#X connect 14 0 9 0;
#X connect 15 0 3 0;
